<?xml version="1.0" encoding="UTF-8"?>
<!DOCTYPE svg PUBLIC "-//W3C//DTD SVG 1.1//EN" "http://www.w3.org/Graphics/SVG/1.1/DTD/svg11.dtd">
<svg version="1.1" xmlns="http://www.w3.org/2000/svg" xmlns:xlink="http://www.w3.org/1999/xlink" x="0" y="0" width="897.611" height="861.12" viewBox="0, 0, 897.611, 861.12">
  <g id="Layer_1">
    <path d="M573.738,311.13 C584.139,327.932 588.939,331.131 599.337,335.13 C575.402,338.616 557.739,329.534 536.139,307.931 C532.38,304.176 514.891,278.121 511.338,265.533 C506.228,247.427 518.421,243.663 524.936,248.73 C532.136,254.331 529.478,250.479 536.936,266.331 C549.738,293.534 588.137,309.53 605.739,311.13 C599.337,319.129 590.538,318.33 573.738,311.13" fill="#775141" id="path80026"/>
    <path d="M573.738,311.13 C584.139,327.932 588.939,331.131 599.337,335.13 C575.402,338.616 557.739,329.534 536.139,307.931 C532.38,304.176 514.891,278.121 511.338,265.533 C506.228,247.427 518.421,243.663 524.936,248.73 C532.136,254.331 529.478,250.479 536.936,266.331 C549.738,293.534 588.137,309.53 605.739,311.13 C599.337,319.129 590.538,318.33 573.738,311.13 z" fill-opacity="0" stroke="#1A1919" stroke-width="4.252" stroke-linecap="round" stroke-linejoin="round" id="path80028"/>
    <path d="M322.54,319.933 C360.137,295.131 351.34,263.939 351.799,233.407 C350.767,250.176 340.858,263.112 332.139,275.932 C324.593,287.018 307.174,296.32 295.122,302.055 C282.152,308.224 269.364,306.858 256.938,310.375 C268.52,317.444 284.28,316.324 295.183,312.14 C286.83,318.009 275.993,326.151 268.764,329.927 C284.936,336.733 308.926,328.91 322.54,319.933" fill="#775141" id="path80030"/>
    <path d="M322.54,319.933 C360.137,295.131 351.34,263.939 351.799,233.407 C350.767,250.176 340.858,263.112 332.139,275.932 C324.593,287.018 307.174,296.32 295.122,302.055 C282.152,308.224 269.364,306.858 256.938,310.375 C268.52,317.444 284.28,316.324 295.183,312.14 C286.83,318.009 275.993,326.151 268.764,329.927 C284.936,336.733 308.926,328.91 322.54,319.933 z" fill-opacity="0" stroke="#1A1919" stroke-width="4.252" stroke-linecap="round" stroke-linejoin="round" id="path80032"/>
    <path d="M399.34,316.732 C351.733,309.801 315.47,330.649 293.739,356.733 C277.736,375.932 262.155,407.686 254.337,430.533 C246.536,453.332 237.377,488.119 235.136,497.733 C226.493,534.773 224.337,525.332 230.337,556.533 C232.473,567.637 260.58,563.198 272.134,568.551 C284.111,574.101 300.222,564.004 303.34,579.932 C305.337,590.132 304.942,624.225 304.942,634.335 C304.942,655.936 298.465,694.054 297.738,707.929 C305.777,708.83 434.186,710.892 448.938,711.53 C497.046,713.611 560.632,716.006 608.936,709.533 C602.786,676.12 595.314,645.862 588.142,567.135 C587.228,557.132 626.385,557.606 634.935,549.53 C649.335,535.936 660.135,513.876 653.735,493.533 C649.985,481.58 634.575,442.242 623.335,419.733 C608.252,389.524 588.761,364.514 580.736,354.332 C559.933,327.932 526.736,315.332 485.739,312.733 C458.585,311.013 411.48,318.501 399.34,316.732" fill="#DBA6B6" id="path80034"/>
    <path d="M399.34,316.732 C351.733,309.801 315.47,330.649 293.739,356.733 C277.736,375.932 262.155,407.686 254.337,430.533 C246.536,453.332 237.377,488.119 235.136,497.733 C226.493,534.773 224.337,525.332 230.337,556.533 C232.473,567.637 260.58,563.198 272.134,568.551 C284.111,574.101 300.222,564.004 303.34,579.932 C305.337,590.132 304.942,624.225 304.942,634.335 C304.942,655.936 298.465,694.054 297.738,707.929 C305.777,708.83 434.186,710.892 448.938,711.53 C497.046,713.611 560.632,716.006 608.936,709.533 C602.786,676.12 595.314,645.862 588.142,567.135 C587.228,557.132 626.385,557.606 634.935,549.53 C649.335,535.936 660.135,513.876 653.735,493.533 C649.985,481.58 634.575,442.242 623.335,419.733 C608.252,389.524 588.761,364.514 580.736,354.332 C559.933,327.932 526.736,315.332 485.739,312.733 C458.585,311.013 411.48,318.501 399.34,316.732 z" fill-opacity="0" stroke="#1A1919" stroke-width="4.252" stroke-linecap="round" stroke-linejoin="round" id="path80036"/>
    <path d="M514.938,353.932 C510.676,335.73 494.088,307.357 487.338,303.532 C481.52,300.234 486.321,311.622 484.338,315.532 C475.84,332.301 473.533,353.73 463.361,369.44 C458.749,376.558 446.786,378.979 451.338,388.732 C470.538,393.532 478.933,410.932 490.338,431.33 C513.583,417.08 522.04,384.264 514.938,353.932" fill="#FFFFFE" id="path80038"/>
    <path d="M514.938,353.932 C510.676,335.73 494.088,307.357 487.338,303.532 C481.52,300.234 486.321,311.622 484.338,315.532 C475.84,332.301 473.533,353.73 463.361,369.44 C458.749,376.558 446.786,378.979 451.338,388.732 C470.538,393.532 478.933,410.932 490.338,431.33 C513.583,417.08 522.04,384.264 514.938,353.932 z" fill-opacity="0" stroke="#1A1919" stroke-width="4.252" stroke-linecap="round" stroke-linejoin="round" id="path80040"/>
    <path d="M447.34,364.685 C447.433,354.635 441.822,346.163 434.702,337.288 C430.426,331.955 427.098,326.911 423.499,321.281 C420.044,315.876 417.944,312.225 411.715,310.584 C405.171,308.864 383.603,307.666 380.538,310.732 C368.538,322.732 361.352,338.159 358.54,352.732 C351.939,386.932 359.936,420.932 385.736,434.33 C392.139,419.132 407.824,400.369 409.736,398.331 C422.669,384.545 426.213,390.018 433.338,373.732 C435.264,369.326 447.311,368.522 447.34,364.685" fill="#FFFFFE" id="path80042"/>
    <path d="M447.34,364.685 C447.433,354.635 441.822,346.163 434.702,337.288 C430.426,331.955 427.098,326.911 423.499,321.281 C420.044,315.876 417.944,312.225 411.715,310.584 C405.171,308.864 383.603,307.666 380.538,310.732 C368.538,322.732 361.352,338.159 358.54,352.732 C351.939,386.932 359.936,420.932 385.736,434.33 C392.139,419.132 407.824,400.369 409.736,398.331 C422.669,384.545 426.213,390.018 433.338,373.732 C435.264,369.326 447.311,368.522 447.34,364.685 z" fill-opacity="0" stroke="#1A1919" stroke-width="4.252" stroke-linecap="round" stroke-linejoin="round" id="path80044"/>
    <path d="M483.738,328.732 C477.067,297.878 486.546,284.571 465.485,274.198 C426.827,255.159 417.264,265.071 408.344,267.023 C398.608,269.151 403.259,280.997 400.136,290.331 C395.247,304.968 390.137,313.131 384.137,335.932 C376.426,365.226 390.137,380.331 409.338,388.131 C419.514,392.268 451.403,391.744 463.338,387.532 C483.738,380.331 493.338,373.131 483.738,328.732" fill="#F0AD9C" id="path80046"/>
    <path d="M483.738,328.732 C477.067,297.878 486.546,284.571 465.485,274.198 C426.827,255.159 417.264,265.071 408.344,267.023 C398.608,269.151 403.259,280.997 400.136,290.331 C395.247,304.968 390.137,313.131 384.137,335.932 C376.426,365.226 390.137,380.331 409.338,388.131 C419.514,392.268 451.403,391.744 463.338,387.532 C483.738,380.331 493.338,373.131 483.738,328.732 z" fill-opacity="0" stroke="#1A1919" stroke-width="4.252" stroke-linecap="round" stroke-linejoin="round" id="path80048"/>
    <path d="M345.738,247.131 C346.319,233.018 348.958,215.271 340.212,203.249 C333.509,194.027 333.072,196.973 322.54,194.331 C308.486,190.809 290.608,208.556 290.538,222.33 C290.458,239.569 293.791,244.131 306.137,255.532 C318.93,267.344 344.72,271.72 345.738,247.131" fill="#F2B5A9" id="path80050"/>
    <path d="M345.738,247.131 C346.319,233.018 348.958,215.271 340.212,203.249 C333.509,194.027 333.072,196.973 322.54,194.331 C308.486,190.809 290.608,208.556 290.538,222.33 C290.458,239.569 293.791,244.131 306.137,255.532 C318.93,267.344 344.72,271.72 345.738,247.131 z" fill-opacity="0" stroke="#1A1919" stroke-width="4.252" stroke-linecap="round" stroke-linejoin="round" id="path80052"/>
    <path d="M525.152,244.338 C524.566,230.229 522.47,208.118 531.218,196.099 C537.921,186.876 539.205,192.173 549.738,189.532 C563.791,186.006 579.738,194.331 582.536,208.732 C585.827,225.651 575.692,244.53 563.337,255.932 C550.549,267.741 526.165,268.931 525.152,244.338" fill="#F2B5A9" id="path80054"/>
    <path d="M525.152,244.338 C524.566,230.229 522.47,208.118 531.218,196.099 C537.921,186.876 539.205,192.173 549.738,189.532 C563.791,186.006 579.738,194.331 582.536,208.732 C585.827,225.651 575.692,244.53 563.337,255.932 C550.549,267.741 526.165,268.931 525.152,244.338 z" fill-opacity="0" stroke="#1A1919" stroke-width="4.252" stroke-linecap="round" stroke-linejoin="round" id="path80056"/>
    <path d="M545.317,250.752 C555.218,210.053 555.082,142.732 543.738,107.932 C518.017,80.336 443.777,37.459 404.491,51.752 C379.493,60.843 335.983,120.923 318.137,140.331 C311.337,193.53 314.829,242.502 343.338,284.331 C362.106,311.869 402.176,341.964 438.536,339.932 C472.755,338.02 532.333,304.124 545.317,250.752" fill="#F2B5A9" id="path80058"/>
    <path d="M545.317,250.752 C555.218,210.053 555.082,142.732 543.738,107.932 C518.017,80.336 443.777,37.459 404.491,51.752 C379.493,60.843 335.983,120.923 318.137,140.331 C311.337,193.53 314.829,242.502 343.338,284.331 C362.106,311.869 402.176,341.964 438.536,339.932 C472.755,338.02 532.333,304.124 545.317,250.752 z M356.936,186.332 C360.137,161.531 398.379,156.672 406.938,182.331 M451.338,182.331 C457.741,156.726 490.778,154.27 499.338,179.932 M432.536,241.931 C412.136,235.931 417.738,262.732 430.938,262.732" fill-opacity="0" stroke="#1A1919" stroke-width="4.252" stroke-linecap="round" stroke-linejoin="round" id="path80060"/>
    <path d="M399.34,163.134 C411.34,147.534 428.449,123.949 423.34,95.132 C403.642,136.014 393.733,156.733 365.739,168.733 C375.34,148.734 390.137,124.33 388.938,101.531 C376.671,136.148 361.338,162.332 336.137,176.733 C344.538,156.332 360.536,136.33 356.936,111.131 C340.136,127.931 314.538,181.122 314.538,203.932 C292.938,196.732 265.338,134.331 296.538,79.131 C323.111,32.116 426.137,-28.869 488.538,20.331 C522.34,20.784 554.083,36.178 579.738,82.732 C599.725,119.006 598.938,185.932 552.137,203.932 C550.249,194.015 544.132,168.684 530.538,155.13 C509.59,134.243 487.338,145.53 466.54,90.332 C456.939,119.934 423.34,163.134 399.34,163.134" fill="#775141" id="path80062"/>
    <path d="M399.34,163.134 C411.34,147.534 428.449,123.949 423.34,95.132 C403.642,136.014 393.733,156.733 365.739,168.733 C375.34,148.734 390.137,124.33 388.938,101.531 C376.671,136.148 361.338,162.332 336.137,176.733 C344.538,156.332 360.536,136.33 356.936,111.131 C340.136,127.931 314.538,181.122 314.538,203.932 C292.938,196.732 265.338,134.331 296.538,79.131 C323.111,32.116 426.137,-28.869 488.538,20.331 C522.34,20.784 554.083,36.178 579.738,82.732 C599.725,119.006 598.938,185.932 552.137,203.932 C550.249,194.015 544.132,168.684 530.538,155.13 C509.59,134.243 487.338,145.53 466.54,90.332 C456.939,119.934 423.34,163.134 399.34,163.134 z" fill-opacity="0" stroke="#1A1919" stroke-width="4.252" stroke-linecap="round" stroke-linejoin="round" id="path80064"/>
    <path d="M402.137,283.131 C422.538,325.131 456.939,319.533 468.939,279.932 C453.738,293.534 423.34,300.731 402.137,283.131" fill="#E46C62" id="path80066"/>
    <path d="M402.137,283.131 C422.538,325.131 456.939,319.533 468.939,279.932 C453.738,293.534 423.34,300.731 402.137,283.131 z" fill-opacity="0" stroke="#1A1919" stroke-width="4.252" stroke-linecap="round" stroke-linejoin="round" id="path80068"/>
    <path d="M384.137,245.534 C403.314,263.289 383.829,277.216 370.938,276.731 C349.736,275.932 351.227,258.838 354.137,250.732 C356.926,242.951 377.196,239.107 384.137,245.534" fill="#EC9A9B" id="path80070"/>
    <path d="M516.705,245.315 C525.025,270.091 494.997,273.684 484.122,266.742 C475.68,261.346 472.938,244.33 486.442,238.084 C493.947,234.614 513.691,236.35 516.705,245.315" fill="#EC9A9B" id="path80072"/>
    <path d="M435.593,403.287 C451.938,397.732 450.4,422.301 437.538,420.53 C432.025,419.775 423.968,407.238 435.593,403.287" fill="#FFFFFE" id="path80074"/>
    <path d="M435.593,403.287 C451.938,397.732 450.4,422.301 437.538,420.53 C432.025,419.775 423.968,407.238 435.593,403.287 z" fill-opacity="0" stroke="#1A1919" stroke-width="4.252" stroke-linecap="round" stroke-linejoin="round" id="path80076"/>
    <path d="M438.137,440.33 C451.483,435.979 452.2,458.901 439.338,457.129 C433.825,456.374 426.462,444.145 438.137,440.33" fill="#FFFFFE" id="path80078"/>
    <path d="M438.137,440.33 C451.483,435.979 452.2,458.901 439.338,457.129 C433.825,456.374 426.462,444.145 438.137,440.33 z M374.538,211.131 C374.538,198.731 393.738,196.333 397.338,209.932 M459.738,209.932 C459.738,195.532 481.338,196.33 481.338,208.732 M314.533,453.53 C319.333,471.53 308.176,539.413 306.536,544.729 C304.755,550.523 303.386,556.401 303.738,562.729 M573.733,463.129 C577.333,508.533 594.574,549.014 592.933,554.33 C591.152,560.123 563.786,563.001 564.137,569.33" fill-opacity="0" stroke="#1A1919" stroke-width="4.252" stroke-linecap="round" stroke-linejoin="round" id="path80080"/>
    <path d="M438.087,437.432 C438.087,428.592 432.686,413.33 432.808,402.229 C432.902,393.703 432.236,389.986 435.452,384.632 C447.33,364.834 434.871,339.138 426.649,357.351 C419.786,372.553 406.188,405.754 400.938,428.733 C399.649,434.385 395.004,477.088 376.708,494.854 C327.738,514.729 292.465,541.031 309.738,544.729 C317.749,546.45 338.965,560.395 359.767,550.073 C370.999,544.504 401.257,529.354 404.645,527.189 C423.129,532.471 433.689,524.554 438.968,504.314 C444.246,481.429 438.087,450.764 438.087,437.432" fill="#F2B5A9" id="path80082"/>
    <path d="M438.087,437.432 C438.087,428.592 432.686,413.33 432.808,402.229 C432.902,393.703 432.236,389.986 435.452,384.632 C447.33,364.834 434.871,339.138 426.649,357.351 C419.786,372.553 406.188,405.754 400.938,428.733 C399.649,434.385 395.004,477.088 376.708,494.854 C327.738,514.729 292.465,541.031 309.738,544.729 C317.749,546.45 338.965,560.395 359.767,550.073 C370.999,544.504 401.257,529.354 404.645,527.189 C423.129,532.471 433.689,524.554 438.968,504.314 C444.246,481.429 438.087,450.764 438.087,437.432 z" fill-opacity="0" stroke="#1A1919" stroke-width="4.252" stroke-linecap="round" stroke-linejoin="round" id="path80084"/>
    <path d="M435.452,493.748 C432.808,461.189 430.169,459.562 430.169,446.231 C430.169,437.395 432.686,413.33 432.808,402.229 C432.902,393.703 436.024,390.527 438.087,384.635 C442.637,371.646 434.514,356.862 428.411,369.67 C421.587,383.974 416.59,403.352 411.34,426.332" fill="#F2B5A9" id="path80086"/>
    <path d="M435.452,493.748 C432.808,461.189 430.169,459.562 430.169,446.231 C430.169,437.395 432.686,413.33 432.808,402.229 C432.902,393.703 436.024,390.527 438.087,384.635 C442.637,371.646 434.514,356.862 428.411,369.67 C421.587,383.974 416.59,403.352 411.34,426.332" fill-opacity="0" stroke="#1A1919" stroke-width="4.252" stroke-linecap="round" stroke-linejoin="round" id="path80088"/>
    <path d="M419.337,441.53 C423.743,423.051 424.511,401.604 425.767,397.832 C434.571,377.594 441.611,395.194 438.968,404.873 C439.16,408.159 439.61,424.242 440.73,432.811 C442.708,447.994 440.153,455.413 442.051,462.51 C449.093,488.911 442.488,512.236 425.767,526.312" fill="#F2B5A9" id="path80090"/>
    <path d="M419.337,441.53 C423.743,423.051 424.511,401.604 425.767,397.832 C434.571,377.594 441.611,395.194 438.968,404.873 C439.16,408.159 439.61,424.242 440.73,432.811 C442.708,447.994 440.153,455.413 442.051,462.51 C449.093,488.911 442.488,512.236 425.767,526.312" fill-opacity="0" stroke="#1A1919" stroke-width="4.252" stroke-linecap="round" stroke-linejoin="round" id="path80092"/>
    <path d="M257.936,421.533 C243.536,454.33 231.142,493.12 223.136,518.733 C215.134,544.33 215.337,562.335 216.939,579.932 C218.983,602.395 245.308,608.957 263.337,608.733 C284.871,608.47 313.305,596.432 346.938,577.129 C361.661,568.682 365.421,572.09 386.538,561.53 C374.538,550.729 366.405,530.663 362.538,490.729 C346.038,506.573 279.335,515.934 247.333,538.335" fill="#DBA6B6" id="path80094"/>
    <path d="M257.936,421.533 C243.536,454.33 231.142,493.12 223.136,518.733 C215.134,544.33 215.337,562.335 216.939,579.932 C218.983,602.395 245.308,608.957 263.337,608.733 C284.871,608.47 313.305,596.432 346.938,577.129 C361.661,568.682 365.421,572.09 386.538,561.53 C374.538,550.729 366.405,530.663 362.538,490.729 C346.038,506.573 279.335,515.934 247.333,538.335" fill-opacity="0" stroke="#1A1919" stroke-width="4.252" stroke-linecap="round" stroke-linejoin="round" id="path80096"/>
    <path d="M446.889,450.632 C446.889,441.796 445.141,415.089 445.014,403.99 C444.921,395.465 444.442,392.285 442.38,386.393 C434.308,363.346 441.921,338.519 452.608,362.194 C459.47,377.395 470.884,403.354 476.139,426.332 C477.428,431.991 484.136,476.733 499.469,498.811 C541.708,524.554 571.408,539.33 554.134,543.033 C546.124,544.748 551.345,569.46 530.538,559.129 C513.738,555.53 476.571,531.112 473.176,528.952 C458.551,531.811 448.652,527.198 443.369,506.957 C438.087,484.073 446.889,463.963 446.889,450.632" fill="#F2B5A9" id="path80098"/>
    <path d="M446.889,450.632 C446.889,441.796 445.141,415.089 445.014,403.99 C444.921,395.465 444.442,392.285 442.38,386.393 C434.308,363.346 441.921,338.519 452.608,362.194 C459.47,377.395 470.884,403.354 476.139,426.332 C477.428,431.991 484.136,476.733 499.469,498.811 C541.708,524.554 571.408,539.33 554.134,543.033 C546.124,544.748 551.345,569.46 530.538,559.129 C513.738,555.53 476.571,531.112 473.176,528.952 C458.551,531.811 448.652,527.198 443.369,506.957 C438.087,484.073 446.889,463.963 446.889,450.632 z" fill-opacity="0" stroke="#1A1919" stroke-width="4.252" stroke-linecap="round" stroke-linejoin="round" id="path80100"/>
    <path d="M442.38,495.51 C445.014,462.952 447.658,461.32 447.658,447.989 C447.658,439.153 445.141,415.089 445.014,403.99 C444.921,395.465 440.149,394.488 438.087,388.593 C433.54,375.604 439.704,367.019 448.652,378.035 C460.09,392.116 462.649,404.775 467.899,427.752" fill="#F2B5A9" id="path80102"/>
    <path d="M442.38,495.51 C445.014,462.952 447.658,461.32 447.658,447.989 C447.658,439.153 445.141,415.089 445.014,403.99 C444.921,395.465 440.149,394.488 438.087,388.593 C433.54,375.604 439.704,367.019 448.652,378.035 C460.09,392.116 462.649,404.775 467.899,427.752" fill-opacity="0" stroke="#1A1919" stroke-width="4.252" stroke-linecap="round" stroke-linejoin="round" id="path80104"/>
    <path d="M456.939,439.129 C454.188,420.876 449.392,402.902 448.136,399.131 C439.338,378.893 435.095,397.455 437.739,407.132 C437.548,410.418 440.009,438.033 440.069,446.676 C440.176,461.798 437.65,464.455 436.769,471.754 C433.361,499.916 438.087,519.932 459.869,528.51" fill="#F2B5A9" id="path80106"/>
    <path d="M456.939,439.129 C454.188,420.876 449.392,402.902 448.136,399.131 C439.338,378.893 435.095,397.455 437.739,407.132 C437.548,410.418 440.009,438.033 440.069,446.676 C440.176,461.798 437.65,464.455 436.769,471.754 C433.361,499.916 438.087,519.932 459.869,528.51" fill-opacity="0" stroke="#1A1919" stroke-width="4.252" stroke-linecap="round" stroke-linejoin="round" id="path80108"/>
    <path d="M635.335,445.533 C642.505,463.467 661.565,510.088 664.945,522.332 C670.595,542.854 674.335,564.314 669.745,579.932 C661.735,607.129 639.205,612.225 605.739,605.536 C591.743,602.733 575.337,599.132 544.938,586.729 C529.212,580.317 512.055,572.09 490.938,561.53 C499.338,551.929 502.54,529.288 511.338,496.729 C521.791,513.674 635.505,525.651 640.935,531.932" fill="#DBA6B6" id="path80110"/>
    <path d="M635.335,445.533 C642.505,463.467 661.565,510.088 664.945,522.332 C670.595,542.854 674.335,564.314 669.745,579.932 C661.735,607.129 639.205,612.225 605.739,605.536 C591.743,602.733 575.337,599.132 544.938,586.729 C529.212,580.317 512.055,572.09 490.938,561.53 C499.338,551.929 502.54,529.288 511.338,496.729 C521.791,513.674 635.505,525.651 640.935,531.932" fill-opacity="0" stroke="#1A1919" stroke-width="4.252" stroke-linecap="round" stroke-linejoin="round" id="path80112"/>
    <path d="M377.598,41.35 C374.843,44.795 368.327,45.143 364.145,45.532 C348.386,46.998 339.105,56.676 331.127,69.421 C328.455,73.699 313.582,107.174 306.536,93.532 C302.72,86.127 317.477,65.573 321.738,60.731 C328.343,53.219 337.718,46.354 347.303,43.675 C353.871,41.838 362.411,41.477 366.494,35.112 C372.283,26.09 373.465,22.434 385.736,22.33 C400.014,22.211 400.572,14.015 413.739,12.731 C422.496,11.875 448.567,12.656 456.137,16.732 C476.936,27.932 431.13,18.771 421.858,21.03 C421.793,23.788 417.845,27.602 417.738,30.332 C408.044,34.247 402.705,28.675 393.208,28.746 C382.497,28.823 383.036,34.546 377.598,41.35" fill="#A07A5F" id="path80114"/>
    <path d="M535.783,52.359 C545.463,60.311 543.485,71.674 549.517,81.48 C554.899,90.241 566.392,92.383 572.337,100.577 C576.71,106.612 579.546,115.558 576.71,122.74 C570.775,111.841 558.161,103.823 548.243,96.497 C535.352,86.969 533.514,83.795 531.837,68.477 C530.749,58.581 521.106,54.709 513.462,49.293 C510.93,47.496 495.799,35.959 493.98,36.056 C509.852,35.214 523.661,42.398 535.783,52.359" fill="#A07A5F" id="path80116"/>
    <path d="M894.245,830.514 L441.208,849.504 L2.767,829.614 L77.29,606.843 L794.005,608.648 L894.245,830.514" fill="#F4BE8A" id="path80118"/>
    <path d="M894.245,830.514 L441.208,849.504 L2.767,829.614 L77.29,606.843 L794.005,608.648 z" fill-opacity="0" stroke="#1A1919" stroke-width="4.252" stroke-linecap="round" stroke-linejoin="round" id="path80120"/>
    <path d="M893.595,858.994 L4.033,858.994 L2.126,830.484 L895.485,830.484 L893.595,858.994" fill="#DAA275" id="path80122"/>
    <path d="M893.595,858.994 L4.033,858.994 L2.126,830.484 L895.485,830.484 z" fill-opacity="0" stroke="#1A1919" stroke-width="4.252" stroke-linecap="round" stroke-linejoin="round" id="path80124"/>
    <path d="M214.647,614.161 C211.502,626.76 185.73,759.445 185.843,774.914 C185.955,790.384 201.813,806.744 221.205,806.604 C240.602,806.464 673.695,807.014 693.075,806.884 C712.445,806.734 727.695,797.554 721.035,770.494 C714.375,743.452 683.015,642.923 676.755,624.656 C669.315,602.939 652.675,592.889 636.515,593.01 C620.365,593.123 259.178,592.767 243.02,592.879 C226.877,593.001 217.801,601.561 214.647,614.161" fill="#E9E9E8" id="path80126"/>
    <path d="M214.647,614.161 C211.502,626.76 185.73,759.445 185.843,774.914 C185.955,790.384 201.813,806.744 221.205,806.604 C240.602,806.464 673.695,807.014 693.075,806.884 C712.445,806.734 727.695,797.554 721.035,770.494 C714.375,743.452 683.015,642.923 676.755,624.656 C669.315,602.939 652.675,592.889 636.515,593.01 C620.365,593.123 259.178,592.767 243.02,592.879 C226.877,593.001 217.801,601.561 214.647,614.161 z" fill-opacity="0" stroke="#1A1919" stroke-width="4.252" stroke-linecap="round" stroke-linejoin="round" id="path80128"/>
    <path d="M223.155,622.874 C220.165,633.952 198.142,759.51 198.241,773.114 C198.34,786.714 207.63,796.284 226.019,796.154 C244.418,796.014 669.605,795.824 687.995,795.684 C706.365,795.554 717.115,790.264 710.805,766.474 C704.495,742.682 672.425,641.854 666.155,625.955 C659.125,608.132 642.055,602.653 626.725,602.765 C611.402,602.877 261.171,603.416 245.852,603.52 C230.524,603.642 226.155,611.788 223.155,622.874" fill="#E9E9E8" id="path80130"/>
    <path d="M223.155,622.874 C220.165,633.952 198.142,759.51 198.241,773.114 C198.34,786.714 207.63,796.284 226.019,796.154 C244.418,796.014 669.605,795.824 687.995,795.684 C706.365,795.554 717.115,790.264 710.805,766.474 C704.495,742.682 672.425,641.854 666.155,625.955 C659.125,608.132 642.055,602.653 626.725,602.765 C611.402,602.877 261.171,603.416 245.852,603.52 C230.524,603.642 226.155,611.788 223.155,622.874 z" fill-opacity="0" stroke="#1A1919" stroke-width="4.252" stroke-linecap="round" stroke-linejoin="round" id="path80132"/>
    <path d="M429.564,754.176 C438.79,751.303 438.658,750.014 442.024,761.291 C441.864,760.776 420.78,764.676 418.511,764.338 C414.986,763.809 407.983,761.77 408.743,756.642 C409.848,749.161 424.783,755.658 429.564,754.176" fill="#DEE1BB" id="path80134"/>
    <path d="M429.564,754.176 C438.79,751.303 438.658,750.014 442.024,761.291 C441.864,760.776 420.78,764.676 418.511,764.338 C414.986,763.809 407.983,761.77 408.743,756.642 C409.848,749.161 424.783,755.658 429.564,754.176 z" fill-opacity="0" stroke="#1A1919" stroke-width="4.252" stroke-linecap="round" stroke-linejoin="round" id="path80136"/>
    <path d="M586.118,571.073 C601.465,571.017 645.775,578.123 662.285,591.538 C672.075,599.489 673.415,614.034 660.085,621.126 C641.435,631.045 605.13,632.452 583.848,632.498 C561.845,632.54 489.236,623.17 500.009,593.517 C507.611,572.596 562.947,571.158 586.118,571.073" fill="#D2D3D2" id="path80138"/>
    <path d="M586.118,571.073 C601.465,571.017 645.775,578.123 662.285,591.538 C672.075,599.489 673.415,614.034 660.085,621.126 C641.435,631.045 605.13,632.452 583.848,632.498 C561.845,632.54 489.236,623.17 500.009,593.517 C507.611,572.596 562.947,571.158 586.118,571.073 z" fill-opacity="0" stroke="#1A1919" stroke-width="4.252" stroke-linecap="round" stroke-linejoin="round" id="path80140"/>
    <path d="M590.215,651.088 C570.874,651.088 508.145,645.52 515.093,612.408 C517.15,602.582 534.527,599.142 544.507,597.416 C570.719,592.879 588.7,598.457 615.147,601.561 C627.785,603.046 651.335,613.036 654.845,623.47 C657.685,631.926 658.025,645.83 649.515,650.095 C637.595,656.062 603.676,651.088 590.215,651.088" fill="#C8A372" id="path80142"/>
    <path d="M590.215,651.088 C570.874,651.088 508.145,645.52 515.093,612.408 C517.15,602.582 534.527,599.142 544.507,597.416 C570.719,592.879 588.7,598.457 615.147,601.561 C627.785,603.046 651.335,613.036 654.845,623.47 C657.685,631.926 658.025,645.83 649.515,650.095 C637.595,656.062 603.676,651.088 590.215,651.088 z" fill-opacity="0" stroke="#1A1919" stroke-width="4.252" stroke-linecap="round" stroke-linejoin="round" id="path80144"/>
    <path d="M585.569,613.106 C580.408,613.335 568.511,617.455 566.036,617.367 C554.064,616.983 558.114,604.776 558.639,597.543 C562.801,597.22 568.642,594.492 572.551,594.801 C581.426,595.495 604.924,602.132 599.843,612.51 C595.108,612.876 590.345,612.895 585.569,613.106" fill="#D0B081" id="path80146"/>
    <path d="M585.569,613.106 C580.408,613.335 568.511,617.455 566.036,617.367 C554.064,616.983 558.114,604.776 558.639,597.543 C562.801,597.22 568.642,594.492 572.551,594.801 C581.426,595.495 604.924,602.132 599.843,612.51 C595.108,612.876 590.345,612.895 585.569,613.106 z" fill-opacity="0" stroke="#1A1919" stroke-width="4.252" stroke-linecap="round" stroke-linejoin="round" id="path80148"/>
    <path d="M609.274,623.198 C611.28,615.749 618.185,605.273 623.295,598.499 C629.745,600.436 637.675,602.489 643.545,604.561 C638.575,608.549 641.245,623.048 636.735,625.617 C631.595,628.561 614.58,622.186 607.999,622.166" fill="#8E8876" id="path80150"/>
    <path d="M609.274,623.198 C611.28,615.749 618.185,605.273 623.295,598.499 C629.745,600.436 637.675,602.489 643.545,604.561 C638.575,608.549 641.245,623.048 636.735,625.617 C631.595,628.561 614.58,622.186 607.999,622.166" fill-opacity="0" stroke="#1A1919" stroke-width="4.252" stroke-linecap="round" stroke-linejoin="round" id="path80152"/>
    <path d="M508.68,610.293 C523.09,596.353 559.741,610.139 562.061,626.137 C561.939,625.377 544.343,631.176 541.924,630.426 C533.561,627.82 515.801,630.163 508.68,610.293" fill="#C28B6B" id="path80154"/>
    <path d="M508.68,610.293 C523.09,596.353 559.741,610.139 562.061,626.137 C561.939,625.377 544.343,631.176 541.924,630.426 C533.561,627.82 515.801,630.163 508.68,610.293 z" fill-opacity="0" stroke="#1A1919" stroke-width="4.252" stroke-linecap="round" stroke-linejoin="round" id="path80156"/>
    <path d="M587.72,610.523 C587.744,610.476 593.72,623.085 593.871,625.682 C594.231,631.823 592.314,637.181 589.033,642.257 C582.743,651.97 574.403,655.242 563.13,654.286 C570.049,648.848 578.528,643.163 582.597,634.945 C586.188,627.689 584.29,618.155 587.72,610.523" fill="#F4BE8A" id="path80158"/>
    <path d="M587.72,610.523 C587.744,610.476 593.72,623.085 593.871,625.682 C594.231,631.823 592.314,637.181 589.033,642.257 C582.743,651.97 574.403,655.242 563.13,654.286 C570.049,648.848 578.528,643.163 582.597,634.945 C586.188,627.689 584.29,618.155 587.72,610.523 z" fill-opacity="0" stroke="#1A1919" stroke-width="4.252" stroke-linecap="round" stroke-linejoin="round" id="path80160"/>
    <path d="M607.127,617.212 C616.051,626.573 613.005,644.695 602.777,651.965 C598.98,654.661 590.364,656.62 585.817,657.885 C581.622,659.057 570.602,657.876 568.22,659.278 C577.507,653.817 589.08,649.762 596.688,641.793 C599.936,638.395 611.196,621.468 607.127,617.212" fill="#F2B286" id="path80162"/>
    <path d="M607.127,617.212 C616.051,626.573 613.005,644.695 602.777,651.965 C598.98,654.661 590.364,656.62 585.817,657.885 C581.622,659.057 570.602,657.876 568.22,659.278 C577.507,653.817 589.08,649.762 596.688,641.793 C599.936,638.395 611.196,621.468 607.127,617.212 z" fill-opacity="0" stroke="#1A1919" stroke-width="4.252" stroke-linecap="round" stroke-linejoin="round" id="path80164"/>
    <path d="M499.989,600.473 C496.08,632.048 514.671,661.729 543.996,678.525 C567.621,692.057 603.386,694.158 625.815,683.845 C656.945,669.534 671.765,640.767 670.335,607.373 C629.705,664.181 525.415,640.739 499.989,600.473" fill="#F8F7F6" id="path80166"/>
    <path d="M499.989,600.473 C496.08,632.048 514.671,661.729 543.996,678.525 C567.621,692.057 603.386,694.158 625.815,683.845 C656.945,669.534 671.765,640.767 670.335,607.373 C629.705,664.181 525.415,640.739 499.989,600.473 z" fill-opacity="0" stroke="#1A1919" stroke-width="4.252" stroke-linecap="round" stroke-linejoin="round" id="path80168"/>
    <path d="M223.113,680.948 L237.639,613.186 L462.204,612.225 L468.02,676.101 L223.113,680.948" fill="#F8F7F6" id="path80170"/>
    <path d="M223.113,680.948 L237.639,613.186 L462.204,612.225 L468.02,676.101 z" fill-opacity="0" stroke="#1A1919" stroke-width="4.252" stroke-linecap="round" stroke-linejoin="round" id="path80172"/>
    <path d="M339.817,587.507 C356.252,586.898 381.541,585.332 396.541,596.132 C422.341,600.332 430.919,605.114 445.848,625.054 C468.837,655.757 423.668,669.398 408.007,669.342 C391.061,669.276 320.801,662.84 274.614,661.739 C250.811,661.171 240.653,646.617 247.84,625.715 C254.655,605.924 268.473,597.778 288.569,593.835 C299.926,591.604 335.716,587.658 339.817,587.507" fill="#F3D5A4" id="path80174"/>
    <path d="M339.817,587.507 C356.252,586.898 380.341,582.932 397.141,596.132 C418.141,598.533 444.939,610.143 437.055,629.137 C431.219,643.19 416.012,643.12 403.155,645.135 C393.583,646.635 382.774,639.389 372.33,637.476 C366.509,636.416 364.098,632.854 357.189,633.97 C344.655,636.009 335.454,644.634 321.293,644.569 C309.808,644.517 301.746,638.78 291.593,637.171 C280.122,635.358 249.311,646.705 246.981,628.945 C244.45,609.661 273.968,596.705 288.574,593.835 C299.926,591.604 335.716,587.658 339.817,587.507" fill="#DAAB80" id="path80176"/>
    <path d="M346.038,589.955 C364.426,583.195 388.624,588.97 396.377,596.713 C424.141,597.932 436.141,606.332 445.848,625.054 C463.507,659.104 429.78,665.455 407.036,665.455 C376.563,665.455 307.09,662.517 274.614,661.739 C250.811,661.171 240.653,646.617 247.84,625.715 C254.655,605.924 276.348,588.004 301.511,592.851 C313.122,586.073 341.186,584.161 346.038,589.955 z M306.363,590.92 C295.169,595.35 289.212,617.62 287.973,627.698 M348.954,588.97 C337.324,596.713 334.502,616.514 334.426,627.698 M395.941,597.332 C388.549,608.338 384.761,618.515 384.761,629.629" fill-opacity="0" stroke="#1A1919" stroke-width="4.252" stroke-linecap="round" stroke-linejoin="round" id="path80178"/>
    <path d="M288.218,746.611 C290.871,726.783 290.96,712.054 288.462,692.095 C285.723,670.143 284.786,643.603 270.161,622.561 C275.683,613.42 273.813,608.84 271.999,597.858 C270.035,585.97 245.468,583.205 235.394,586.889 C222.03,591.764 218.022,607.926 227.163,623.489 C217.118,635.372 216.166,662.751 213.124,691.729 C212.173,700.762 211.825,730.804 216.616,746.592 C218.735,753.58 221.21,760.04 225.311,763.392 C242.074,777.114 268.005,775.584 279.33,764.343 C283.587,760.111 287.205,754.139 288.218,746.611" fill="#FFFFFE" id="path80180"/>
    <path d="M216.705,667.823 C216.189,673.908 214.671,675.459 214.671,680.526 C235.502,703.908 275.655,697.823 285.817,682.054 C285.822,670.861 285.306,673.429 283.277,667.327 C275.636,686.629 233.983,690.67 216.705,667.823" fill="#BC6B5E" id="path80182"/>
    <path d="M288.358,748.12 C290.543,733.373 288.255,708.604 287.345,688.153 C286.212,662.705 284.786,643.603 270.161,622.561 C275.683,613.42 273.813,608.84 271.999,597.858 C270.035,585.97 245.468,583.205 235.394,586.889 C222.03,591.764 218.022,607.926 227.163,623.489 C217.118,635.372 214.118,660.033 214.165,689.17 C214.183,704.906 214.165,727.795 216.199,748.12 C216.921,755.39 221.411,759.811 225.311,763.392 C238.558,775.564 268.005,775.584 279.33,764.343 C283.587,760.111 287.252,755.639 288.358,748.12 z" fill-opacity="0" stroke="#1A1919" stroke-width="4.252" stroke-linecap="round" stroke-linejoin="round" id="path80184"/>
    <path d="M273.134,619.26 C278.392,611.578 281.215,597.445 270.536,590.334 C259.267,582.834 234.231,583.631 225.733,591.135 C216.377,599.4 218.022,609.764 222.602,620.742 C220.755,630.952 208.169,637.124 209.95,648.932 C213.79,650.507 219.949,642.783 223.511,644.507 C229.684,647.502 225.817,657.801 234.489,657.323 C239.036,657.08 243.368,648.947 248.21,648.182 C254.665,647.17 259.436,656.78 265.582,655.486 C265.483,649.846 268.525,644.564 273.813,644.507 C279.395,644.452 289.642,651.661 286.624,643.603 C283.642,635.634 283.333,633.534 273.134,619.26" fill="#EDB3AF" id="path80186"/>
    <path d="M273.134,619.26 C278.392,611.578 281.215,597.445 270.536,590.334 C259.267,582.834 234.231,583.631 225.733,591.135 C216.377,599.4 218.022,609.764 222.602,620.742 C220.755,630.952 208.169,637.124 209.95,648.932 C213.79,650.507 219.949,642.783 223.511,644.507 C229.684,647.502 225.817,657.801 234.489,657.323 C239.036,657.08 243.368,648.947 248.21,648.182 C254.665,647.17 259.436,656.78 265.582,655.486 C265.483,649.846 268.525,644.564 273.813,644.507 C279.395,644.452 289.642,651.661 286.624,643.603 C283.642,635.634 283.333,633.534 273.134,619.26 z" fill-opacity="0" stroke="#1A1919" stroke-width="4.252" stroke-linecap="round" stroke-linejoin="round" id="path80188"/>
    <path d="M268.933,595.936 C271.254,583.166 230.468,580.757 228.939,591.932 C227.421,602.986 265.249,603.801 268.933,595.936" fill="#F4C2AC" id="path80190"/>
    <path d="M268.933,595.936 C271.254,583.166 230.468,580.757 228.939,591.932 C227.421,602.986 265.249,603.801 268.933,595.936 z" fill-opacity="0" stroke="#1A1919" stroke-width="4.252" stroke-linecap="round" stroke-linejoin="round" id="path80192"/>
    <path d="M222.602,618.905 C234.457,629.207 257.843,633.286 272.903,619.809 C273.18,618.905 270.892,622.541 271.08,621.651" fill="#EDB3AF" id="path80194"/>
    <path d="M222.602,618.905 C234.457,629.207 257.843,633.286 272.903,619.809 C273.18,618.905 270.892,622.541 271.08,621.651" fill-opacity="0" stroke="#1A1919" stroke-width="4.252" stroke-linecap="round" stroke-linejoin="round" id="path80196"/>
    <path d="M443.59,785.774 C369.433,784.104 278.899,774.164 297.137,720.267 C304.352,698.976 358.098,682.645 445.511,680.62 C539.903,678.426 596.149,696.286 605.093,723.304 C621.555,773.084 507.676,787.214 443.59,785.774" fill="#F8F7F6" id="path80198"/>
    <path d="M443.59,785.774 C369.433,784.104 278.899,774.164 297.137,720.267 C304.352,698.976 358.098,682.645 445.511,680.62 C539.903,678.426 596.149,696.286 605.093,723.304 C621.555,773.084 507.676,787.214 443.59,785.774 z" fill-opacity="0" stroke="#1A1919" stroke-width="4.252" stroke-linecap="round" stroke-linejoin="round" id="path80200"/>
    <path d="M386.566,747.173 C377.908,742.504 368.093,736.514 365.205,724.823 C363.949,719.709 362.866,714.248 368.759,701.948 C373.455,692.156 390.419,678.192 405.874,676.026 C426.902,673.054 445.793,667.963 466.877,670.588 C481.314,672.379 496.212,677.01 510.564,679.092 C525.555,681.257 536.571,687.515 547.169,694.851 C557.069,701.7 573.715,721.87 572.58,729.413 C570.058,746.198 551.158,742.064 539.533,744.642 C509.102,751.377 484.413,745.903 447.405,745.514 C431.585,745.345 426.63,758.17 415.019,750.239 C406.962,744.717 395.317,751.879 386.566,747.173" fill="#F7DE8E" id="path80202"/>
    <path d="M386.566,747.173 C377.908,742.504 368.093,736.514 365.205,724.823 C363.949,719.709 362.866,714.248 368.759,701.948 C373.455,692.156 390.419,678.192 405.874,676.026 C426.902,673.054 445.793,667.963 466.877,670.588 C481.314,672.379 496.212,677.01 510.564,679.092 C525.555,681.257 536.571,687.515 547.169,694.851 C557.069,701.7 573.715,721.87 572.58,729.413 C570.058,746.198 551.158,742.064 539.533,744.642 C509.102,751.377 484.413,745.903 447.405,745.514 C431.585,745.345 426.63,758.17 415.019,750.239 C406.962,744.717 395.317,751.879 386.566,747.173 z" fill-opacity="0" stroke="#1A1919" stroke-width="4.252" stroke-linecap="round" stroke-linejoin="round" id="path80204"/>
    <path d="M463.764,698.882 C461.384,691.757 456.067,676.298 447.199,674.999 C439.595,673.893 437.936,685.889 433.324,689.76 C424.582,697.101 428.72,699.684 418.999,683.807 C414.71,676.814 406.403,681.408 403.296,689.728 C404.762,685.804 420.269,710.709 420.963,711.436 C424.83,715.444 429.546,718.842 435.555,716.827 C442.113,714.619 442.165,702.867 449.384,703.26 C457.403,703.702 456.799,718.392 461.749,723.182 C469.413,718.448 479.009,693.913 491.88,700.069 C492.555,706.181 485.852,718.495 500.665,717.53 C513.606,716.695 520.727,708.67 523.769,703.486 C527.223,697.588 529.516,694.139 527.411,687.117 C517.465,694.819 506.041,692.643 501.536,688.598 C497.88,685.312 497.749,677.92 491.543,677.353 C483.559,676.612 480.049,680.245 475.727,683.869 C471.715,687.225 469.075,698.043 463.764,698.882" fill="#E07A6A" id="path80206"/>
    <path d="M463.764,698.882 C461.384,691.757 456.067,676.298 447.199,674.999 C439.595,673.893 437.936,685.889 433.324,689.76 C424.582,697.101 428.72,699.684 418.999,683.807 C414.71,676.814 406.403,681.408 403.296,689.728 C404.762,685.804 420.269,710.709 420.963,711.436 C424.83,715.444 429.546,718.842 435.555,716.827 C442.113,714.619 442.165,702.867 449.384,703.26 C457.403,703.702 456.799,718.392 461.749,723.182 C469.413,718.448 479.009,693.913 491.88,700.069 C492.555,706.181 485.852,718.495 500.665,717.53 C513.606,716.695 520.727,708.67 523.769,703.486 C527.223,697.588 529.516,694.139 527.411,687.117 C517.465,694.819 506.041,692.643 501.536,688.598 C497.88,685.312 497.749,677.92 491.543,677.353 C483.559,676.612 480.049,680.245 475.727,683.869 C471.715,687.225 469.075,698.043 463.764,698.882 z" fill-opacity="0" stroke="#1A1919" stroke-width="4.252" stroke-linecap="round" stroke-linejoin="round" id="path80208"/>
    <path d="M351.377,708.033 C355.652,711.004 355.23,717.108 355.431,721.87 C355.605,726.014 367.689,719.418 362.327,730.42 C360.902,733.345 354.499,734.967 355.558,737.995 C356.702,741.286 358.52,748.744 353.608,750.952 C348.208,753.37 343.38,747.689 340.567,744.909 C337.68,746.939 333.48,747.061 329.852,746.104 C329.556,742.842 330.827,739.697 330.4,736.476 C327.283,735.229 324.095,735.014 320.983,734.432 C320.749,730.096 320.009,724.303 324.837,721.481 C326.725,720.379 330.527,720.684 331.886,719.775 C334.291,718.181 333.438,717.366 334.249,714.698 C335.439,710.751 338.337,706.265 344.233,706.242 C347.481,706.223 349.764,706.908 351.377,708.033" fill="#90BD84" id="path80210"/>
    <path d="M351.377,708.033 C355.652,711.004 355.23,717.108 355.431,721.87 C355.605,726.014 367.689,719.418 362.327,730.42 C360.902,733.345 354.499,734.967 355.558,737.995 C356.702,741.286 358.52,748.744 353.608,750.952 C348.208,753.37 343.38,747.689 340.567,744.909 C337.68,746.939 333.48,747.061 329.852,746.104 C329.556,742.842 330.827,739.697 330.4,736.476 C327.283,735.229 324.095,735.014 320.983,734.432 C320.749,730.096 320.009,724.303 324.837,721.481 C326.725,720.379 330.527,720.684 331.886,719.775 C334.291,718.181 333.438,717.366 334.249,714.698 C335.439,710.751 338.337,706.265 344.233,706.242 C347.481,706.223 349.764,706.908 351.377,708.033 z" fill-opacity="0" stroke="#1A1919" stroke-width="4.252" stroke-linecap="round" stroke-linejoin="round" id="path80212"/>
    <path d="M372.892,717.82 C377.158,720.791 376.746,726.905 376.938,731.666 C377.111,735.801 389.2,729.21 383.843,740.207 C382.408,743.137 376.014,744.754 377.069,747.783 C378.208,751.073 380.027,758.536 375.119,760.734 C369.715,763.166 364.886,757.476 362.079,754.702 C359.196,756.731 358.09,762.445 355.043,766.504 C352.005,770.564 340.296,764.006 342.855,757.354 C348.939,753.281 341.843,748.213 340.806,742.106 C340.577,737.77 341.524,734.095 346.347,731.273 C348.236,730.171 352.033,730.476 353.402,729.567 C355.801,727.973 354.949,727.158 355.759,724.491 C356.955,720.538 359.843,716.053 365.749,716.03 C368.993,716.01 371.27,716.695 372.892,717.82" fill="#90BD84" id="path80214"/>
    <path d="M372.892,717.82 C377.158,720.791 376.746,726.905 376.938,731.666 C377.111,735.801 389.2,729.21 383.843,740.207 C382.408,743.137 376.014,744.754 377.069,747.783 C378.208,751.073 380.027,758.536 375.119,760.734 C369.715,763.166 364.886,757.476 362.079,754.702 C359.196,756.731 358.09,762.445 355.043,766.504 C352.005,770.564 340.296,764.006 342.855,757.354 C348.939,753.281 341.843,748.213 340.806,742.106 C340.577,737.77 341.524,734.095 346.347,731.273 C348.236,730.171 352.033,730.476 353.402,729.567 C355.801,727.973 354.949,727.158 355.759,724.491 C356.955,720.538 359.843,716.053 365.749,716.03 C368.993,716.01 371.27,716.695 372.892,717.82 z" fill-opacity="0" stroke="#1A1919" stroke-width="4.252" stroke-linecap="round" stroke-linejoin="round" id="path80216"/>
    <path d="M382.751,729.651 C391.207,730.092 400.821,732.075 405.715,737.901 C409.736,742.687 413.481,749.84 412.652,756.332 C412.493,757.617 407.186,772.594 407.196,772.594 C400.493,775.364 394.259,773.274 391.999,766.474 C383.856,765.609 368.345,780.684 368.903,762.314 C369.002,759.145 371.88,756.858 371.355,753.538 C370.774,749.84 367.207,750.295 366.485,747.135 C364.469,738.304 370.051,740.184 375.996,738.197 C375.442,735.332 374.575,732.67 374.665,729.656 C377.064,729.534 379.84,729.501 382.751,729.651" fill="#90BD84" id="path80218"/>
    <path d="M382.751,729.651 C391.207,730.092 400.821,732.075 405.715,737.901 C409.736,742.687 413.481,749.84 412.652,756.332 C412.493,757.617 407.186,772.594 407.196,772.594 C400.493,775.364 394.259,773.274 391.999,766.474 C383.856,765.609 368.345,780.684 368.903,762.314 C369.002,759.145 371.88,756.858 371.355,753.538 C370.774,749.84 367.207,750.295 366.485,747.135 C364.469,738.304 370.051,740.184 375.996,738.197 C375.442,735.332 374.575,732.67 374.665,729.656 C377.064,729.534 379.84,729.501 382.751,729.651 z" fill-opacity="0" stroke="#1A1919" stroke-width="4.252" stroke-linecap="round" stroke-linejoin="round" id="path80220"/>
    <path d="M445.502,746.161 C459.874,743.038 460.014,742.345 464.833,756.323 C464.618,755.676 433.764,763.95 430.272,763.439 C424.83,762.642 410.627,752.409 411.977,746.161 C413.95,737.025 438.058,747.773 445.502,746.161" fill="#DEE1BB" id="path80222"/>
    <path d="M445.502,746.161 C459.874,743.038 460.014,742.345 464.833,756.323 C464.618,755.676 433.764,763.95 430.272,763.439 C424.83,762.642 410.627,752.409 411.977,746.161 C413.95,737.025 438.058,747.773 445.502,746.161 z" fill-opacity="0" stroke="#1A1919" stroke-width="4.252" stroke-linecap="round" stroke-linejoin="round" id="path80224"/>
    <path d="M418.061,736.017 C423.634,736.884 425.036,737.03 428.223,741.08 C430.999,744.609 438.527,738.37 440.889,750.041 C441.517,753.145 437.017,757.092 439.848,759.304 C442.924,761.713 449.219,767.444 446.387,771.314 C443.27,775.574 435.504,772.564 431.317,771.274 C430.108,774.194 426.574,775.964 422.833,776.574 C420.509,773.864 419.618,770.644 417.199,768.014 C413.72,768.164 410.838,769.254 407.777,769.994 C404.833,766.327 400.52,761.592 402.892,757.228 C403.821,755.517 407.29,754.27 407.889,752.944 C408.954,750.604 407.692,750.234 406.708,747.604 C405.236,743.7 404.88,738.661 409.952,736.288 C412.741,734.986 415.962,735.679 418.061,736.017" fill="#90BD84" id="path80226"/>
    <path d="M418.061,736.017 C423.634,736.884 425.036,737.03 428.223,741.08 C430.999,744.609 438.527,738.37 440.889,750.041 C441.517,753.145 437.017,757.092 439.848,759.304 C442.924,761.713 449.219,767.444 446.387,771.314 C443.27,775.574 435.504,772.564 431.317,771.274 C430.108,774.194 426.574,775.964 422.833,776.574 C420.509,773.864 419.618,770.644 417.199,768.014 C413.72,768.164 410.838,769.254 407.777,769.994 C404.833,766.327 400.52,761.592 402.892,757.228 C403.821,755.517 407.29,754.27 407.889,752.944 C408.954,750.604 407.692,750.234 406.708,747.604 C405.236,743.7 404.88,738.661 409.952,736.288 C412.741,734.986 415.962,735.679 418.061,736.017 z" fill-opacity="0" stroke="#1A1919" stroke-width="4.252" stroke-linecap="round" stroke-linejoin="round" id="path80228"/>
    <path d="M488.871,747.853 C492.462,755.639 490.014,765.642 478.877,768.154 C469.53,770.274 462.171,771.004 457.324,766.312 C447.837,757.087 455.196,740.385 466.436,738.712 C475.905,737.301 485.692,740.957 488.871,747.853" fill="#CB7A64" id="path80230"/>
    <path d="M488.871,747.853 C492.462,755.639 490.014,765.642 478.877,768.154 C469.53,770.274 462.171,771.004 457.324,766.312 C447.837,757.087 455.196,740.385 466.436,738.712 C475.905,737.301 485.692,740.957 488.871,747.853 z" fill-opacity="0" stroke="#1A1919" stroke-width="4.252" stroke-linecap="round" stroke-linejoin="round" id="path80232"/>
    <path d="M514.244,745.387 C517.835,753.173 515.392,763.176 504.251,765.694 C494.899,767.804 487.549,768.544 482.697,763.846 C473.205,754.622 480.569,737.92 491.814,736.247 C501.278,734.835 511.071,738.492 514.244,745.387" fill="#CB7A64" id="path80234"/>
    <path d="M514.244,745.387 C517.835,753.173 515.392,763.176 504.251,765.694 C494.899,767.804 487.549,768.544 482.697,763.846 C473.205,754.622 480.569,737.92 491.814,736.247 C501.278,734.835 511.071,738.492 514.244,745.387 z" fill-opacity="0" stroke="#1A1919" stroke-width="4.252" stroke-linecap="round" stroke-linejoin="round" id="path80236"/>
    <path d="M675.995,778.894 C656.295,782.574 614.702,789.524 575.988,779.074 C564.512,775.984 520.188,757.387 527.889,747.525 C536.533,736.453 565.361,738.483 577.202,737.695 C590.955,736.772 612.48,738.585 626.215,737.658 C640.885,736.673 691.645,730.561 710.165,722.241 C722.675,716.606 731.655,702.416 735.035,688.139 C740.005,687.623 749.475,693.665 751.615,698.817 C744.195,713.695 728.475,720.791 727.225,737.385 C725.215,763.851 697.275,774.894 675.995,778.894" fill="#FDDF89" id="path80238"/>
    <path d="M718.345,759.577 C714.505,763.978 710.475,765.577 704.855,765.014 C705.445,757.27 714.915,753.098 713.265,744.009 C705.945,742.439 697.415,746.995 689.345,746.592 C690.605,740.179 697.665,738.098 701.725,734.353 C694.765,733.955 685.945,735.656 680.505,730.832 C688.615,721.354 704.285,726.989 714.215,720.145 C725.035,712.673 732.035,700.823 735.035,688.139 C740.005,687.623 749.475,693.665 751.615,698.817 C744.195,713.695 728.475,720.791 727.225,737.385 C726.745,743.611 723.705,753.44 718.345,759.577" fill="#E0D387" id="path80240"/>
    <path d="M675.995,778.894 C656.295,782.574 614.702,789.524 575.988,779.074 C564.512,775.984 520.188,757.387 527.889,747.525 C536.533,736.453 565.361,738.483 577.202,737.695 C590.955,736.772 612.48,738.585 626.215,737.658 C640.885,736.673 691.645,730.561 710.165,722.241 C722.675,716.606 731.655,702.416 735.035,688.139 C740.005,687.623 749.475,693.665 751.615,698.817 C744.195,713.695 728.475,720.791 727.225,737.385 C725.215,763.851 697.275,774.894 675.995,778.894 z M562.45,756.093 C612.949,770.264 675.895,762.585 701.675,744.548" fill-opacity="0" stroke="#1A1919" stroke-width="4.252" stroke-linecap="round" stroke-linejoin="round" id="path80242"/>
  </g>
</svg>
