<?xml version="1.0" encoding="UTF-8" standalone="no"?>
<!-- Created with Inkscape (http://www.inkscape.org/) -->

<svg
   xmlns:dc="http://purl.org/dc/elements/1.1/"
   xmlns:cc="http://creativecommons.org/ns#"
   xmlns:rdf="http://www.w3.org/1999/02/22-rdf-syntax-ns#"
   xmlns:svg="http://www.w3.org/2000/svg"
   xmlns="http://www.w3.org/2000/svg"
   xmlns:sodipodi="http://sodipodi.sourceforge.net/DTD/sodipodi-0.dtd"
   xmlns:inkscape="http://www.inkscape.org/namespaces/inkscape"
   version="1.0"
   width="1049.8159"
   height="1547.037"
   id="svg2"
   inkscape:version="0.91 r13725"
   sodipodi:docname="shuttlepayloaddoors.svg">
  <metadata
     id="metadata4852">
    <rdf:RDF>
      <cc:Work
         rdf:about="">
        <dc:format>image/svg+xml</dc:format>
        <dc:type
           rdf:resource="http://purl.org/dc/dcmitype/StillImage" />
        <dc:title></dc:title>
      </cc:Work>
    </rdf:RDF>
  </metadata>
  <sodipodi:namedview
     pagecolor="#ffffff"
     bordercolor="#666666"
     borderopacity="1"
     objecttolerance="10"
     gridtolerance="10"
     guidetolerance="10"
     inkscape:pageopacity="0"
     inkscape:pageshadow="2"
     inkscape:window-width="1916"
     inkscape:window-height="1035"
     id="namedview4850"
     showgrid="false"
     fit-margin-top="0"
     fit-margin-left="0"
     fit-margin-right="0"
     fit-margin-bottom="0"
     inkscape:zoom="0.19132865"
     inkscape:cx="705.338"
     inkscape:cy="235.12983"
     inkscape:window-x="4"
     inkscape:window-y="1"
     inkscape:window-maximized="1"
     inkscape:current-layer="layer1" />
  <defs
     id="defs4">
    <clipPath
       id="clipPath3450">
      <path
         d="M -26.642856,406 35.1,378.8 l 0,220 c -0.5,45.1 67.77605,24.4 66.47143,-43.2 L 101.5,337.7 l 58.2,-26 0,232.8 c 0.5,39.2 -13.76576,129.4 -87.771423,149 C -2.077079,713 -26.125867,673.8 -25.92857,617 L -26.642856,406 Z M 374.4,497.4 l 0,-242.4 40.4,-14.1 34.9,131.3 21.2,-149 53.5,-19.7 0,239.9 -32.8,13.1 -0.8,-126 -20.4,134.6 -36.4,11.6 -25.7,-120.2 0,129.8 -33.9,11.1 z m 187.9,-304.5 38.9,-15.7 0,189.9 62.1,-20.7 0,43.5 -101,33.3 0,-230.3 z M 301.2,358 344.6,334.8 C 337.9,287 315.56728,260.7 271.94027,270.7 235.7,282.8 194.32124,331.2 194.6636,389.9 c 2.0364,51.8 22.97194,57.1 79.80205,52.5 33.03435,-2.1 33.80798,57.2 2.02031,69.2 C 248.1,522.1 235.32437,511.3 232.54433,486.8 L 188.6,502.5 c -0.1,24 7.5839,67.1 54.04585,65.1 C 300.9,563.8 342.40182,516.8 346.69156,456.5 351.4,388.8 305.20558,379.8 286.08241,383.5 227.9,392.8 238.96315,348.1 254.76768,335.3 276,317.4 297.55,330.3 301.2347,358 Z"
         style="fill:none;fill-rule:evenodd;stroke:#0fe500;stroke-width:1px"
         id="path4548"
         inkscape:connector-curvature="0" />
    </clipPath>
    <clipPath
       id="clipPath3454">
      <path
         d="M -26.642856,406 35.1,378.8 l 0,220 c -0.5,45.1 67.77605,24.4 66.47143,-43.2 L 101.5,337.7 l 58.2,-26 0,232.8 c 0.5,39.2 -13.76576,129.4 -87.771423,149 C -2.077079,713 -26.125867,673.8 -25.92857,617 L -26.642856,406 Z M 374.4,497.4 l 0,-242.4 40.4,-14.1 34.9,131.3 21.2,-149 53.5,-19.7 0,239.9 -32.8,13.1 -0.8,-126 -20.4,134.6 -36.4,11.6 -25.7,-120.2 0,129.8 -33.9,11.1 z m 187.9,-304.5 38.9,-15.7 0,189.9 62.1,-20.7 0,43.5 -101,33.3 0,-230.3 z M 301.2,358 344.6,334.8 C 337.9,287 315.56728,260.7 271.94027,270.7 235.7,282.8 194.32124,331.2 194.6636,389.9 c 2.0364,51.8 22.97194,57.1 79.80205,52.5 33.03435,-2.1 33.80798,57.2 2.02031,69.2 C 248.1,522.1 235.32437,511.3 232.54433,486.8 L 188.6,502.5 c -0.1,24 7.5839,67.1 54.04585,65.1 C 300.9,563.8 342.40182,516.8 346.69156,456.5 351.4,388.8 305.20558,379.8 286.08241,383.5 227.9,392.8 238.96315,348.1 254.76768,335.3 276,317.4 297.55,330.3 301.2347,358 Z"
         style="fill:none;fill-rule:evenodd;stroke:#0fe500;stroke-width:1px"
         id="path4551"
         inkscape:connector-curvature="0" />
    </clipPath>
    <clipPath
       id="clipPath3458">
      <path
         d="M -26.642856,406 35.1,378.8 l 0,220 c -0.5,45.1 67.77605,24.4 66.47143,-43.2 L 101.5,337.7 l 58.2,-26 0,232.8 c 0.5,39.2 -13.76576,129.4 -87.771423,149 C -2.077079,713 -26.125867,673.8 -25.92857,617 L -26.642856,406 Z M 374.4,497.4 l 0,-242.4 40.4,-14.1 34.9,131.3 21.2,-149 53.5,-19.7 0,239.9 -32.8,13.1 -0.8,-126 -20.4,134.6 -36.4,11.6 -25.7,-120.2 0,129.8 -33.9,11.1 z m 187.9,-304.5 38.9,-15.7 0,189.9 62.1,-20.7 0,43.5 -101,33.3 0,-230.3 z M 301.2,358 344.6,334.8 C 337.9,287 315.56728,260.7 271.94027,270.7 235.7,282.8 194.32124,331.2 194.6636,389.9 c 2.0364,51.8 22.97194,57.1 79.80205,52.5 33.03435,-2.1 33.80798,57.2 2.02031,69.2 C 248.1,522.1 235.32437,511.3 232.54433,486.8 L 188.6,502.5 c -0.1,24 7.5839,67.1 54.04585,65.1 C 300.9,563.8 342.40182,516.8 346.69156,456.5 351.4,388.8 305.20558,379.8 286.08241,383.5 227.9,392.8 238.96315,348.1 254.76768,335.3 276,317.4 297.55,330.3 301.2347,358 Z"
         style="fill:none;fill-rule:evenodd;stroke:#0fe500;stroke-width:1px"
         id="path4554"
         inkscape:connector-curvature="0" />
    </clipPath>
    <clipPath
       id="clipPath3462">
      <path
         d="M -26.642856,406 35.1,378.8 l 0,220 c -0.5,45.1 67.77605,24.4 66.47143,-43.2 L 101.5,337.7 l 58.2,-26 0,232.8 c 0.5,39.2 -13.76576,129.4 -87.771423,149 C -2.077079,713 -26.125867,673.8 -25.92857,617 L -26.642856,406 Z M 374.4,497.4 l 0,-242.4 40.4,-14.1 34.9,131.3 21.2,-149 53.5,-19.7 0,239.9 -32.8,13.1 -0.8,-126 -20.4,134.6 -36.4,11.6 -25.7,-120.2 0,129.8 -33.9,11.1 z m 187.9,-304.5 38.9,-15.7 0,189.9 62.1,-20.7 0,43.5 -101,33.3 0,-230.3 z M 301.2,358 344.6,334.8 C 337.9,287 315.56728,260.7 271.94027,270.7 235.7,282.8 194.32124,331.2 194.6636,389.9 c 2.0364,51.8 22.97194,57.1 79.80205,52.5 33.03435,-2.1 33.80798,57.2 2.02031,69.2 C 248.1,522.1 235.32437,511.3 232.54433,486.8 L 188.6,502.5 c -0.1,24 7.5839,67.1 54.04585,65.1 C 300.9,563.8 342.40182,516.8 346.69156,456.5 351.4,388.8 305.20558,379.8 286.08241,383.5 227.9,392.8 238.96315,348.1 254.76768,335.3 276,317.4 297.55,330.3 301.2347,358 Z"
         style="fill:none;fill-rule:evenodd;stroke:#0fe500;stroke-width:1px"
         id="path4557"
         inkscape:connector-curvature="0" />
    </clipPath>
    <clipPath
       id="clipPath3466">
      <path
         d="M -26.642856,406 35.1,378.8 l 0,220 c -0.5,45.1 67.77605,24.4 66.47143,-43.2 L 101.5,337.7 l 58.2,-26 0,232.8 c 0.5,39.2 -13.76576,129.4 -87.771423,149 C -2.077079,713 -26.125867,673.8 -25.92857,617 L -26.642856,406 Z M 374.4,497.4 l 0,-242.4 40.4,-14.1 34.9,131.3 21.2,-149 53.5,-19.7 0,239.9 -32.8,13.1 -0.8,-126 -20.4,134.6 -36.4,11.6 -25.7,-120.2 0,129.8 -33.9,11.1 z m 187.9,-304.5 38.9,-15.7 0,189.9 62.1,-20.7 0,43.5 -101,33.3 0,-230.3 z M 301.2,358 344.6,334.8 C 337.9,287 315.56728,260.7 271.94027,270.7 235.7,282.8 194.32124,331.2 194.6636,389.9 c 2.0364,51.8 22.97194,57.1 79.80205,52.5 33.03435,-2.1 33.80798,57.2 2.02031,69.2 C 248.1,522.1 235.32437,511.3 232.54433,486.8 L 188.6,502.5 c -0.1,24 7.5839,67.1 54.04585,65.1 C 300.9,563.8 342.40182,516.8 346.69156,456.5 351.4,388.8 305.20558,379.8 286.08241,383.5 227.9,392.8 238.96315,348.1 254.76768,335.3 276,317.4 297.55,330.3 301.2347,358 Z"
         style="fill:none;fill-rule:evenodd;stroke:#0fe500;stroke-width:1px"
         id="path4560"
         inkscape:connector-curvature="0" />
    </clipPath>
    <clipPath
       id="clipPath3470">
      <path
         d="M -26.642856,406 35.1,378.8 l 0,220 c -0.5,45.1 67.77605,24.4 66.47143,-43.2 L 101.5,337.7 l 58.2,-26 0,232.8 c 0.5,39.2 -13.76576,129.4 -87.771423,149 C -2.077079,713 -26.125867,673.8 -25.92857,617 L -26.642856,406 Z M 374.4,497.4 l 0,-242.4 40.4,-14.1 34.9,131.3 21.2,-149 53.5,-19.7 0,239.9 -32.8,13.1 -0.8,-126 -20.4,134.6 -36.4,11.6 -25.7,-120.2 0,129.8 -33.9,11.1 z m 187.9,-304.5 38.9,-15.7 0,189.9 62.1,-20.7 0,43.5 -101,33.3 0,-230.3 z M 301.2,358 344.6,334.8 C 337.9,287 315.56728,260.7 271.94027,270.7 235.7,282.8 194.32124,331.2 194.6636,389.9 c 2.0364,51.8 22.97194,57.1 79.80205,52.5 33.03435,-2.1 33.80798,57.2 2.02031,69.2 C 248.1,522.1 235.32437,511.3 232.54433,486.8 L 188.6,502.5 c -0.1,24 7.5839,67.1 54.04585,65.1 C 300.9,563.8 342.40182,516.8 346.69156,456.5 351.4,388.8 305.20558,379.8 286.08241,383.5 227.9,392.8 238.96315,348.1 254.76768,335.3 276,317.4 297.55,330.3 301.2347,358 Z"
         style="fill:none;fill-rule:evenodd;stroke:#0fe500;stroke-width:1px"
         id="path4563"
         inkscape:connector-curvature="0" />
    </clipPath>
    <clipPath
       id="clipPath3474">
      <path
         d="M -26.642856,406 35.1,378.8 l 0,220 c -0.5,45.1 67.77605,24.4 66.47143,-43.2 L 101.5,337.7 l 58.2,-26 0,232.8 c 0.5,39.2 -13.76576,129.4 -87.771423,149 C -2.077079,713 -26.125867,673.8 -25.92857,617 L -26.642856,406 Z M 374.4,497.4 l 0,-242.4 40.4,-14.1 34.9,131.3 21.2,-149 53.5,-19.7 0,239.9 -32.8,13.1 -0.8,-126 -20.4,134.6 -36.4,11.6 -25.7,-120.2 0,129.8 -33.9,11.1 z m 187.9,-304.5 38.9,-15.7 0,189.9 62.1,-20.7 0,43.5 -101,33.3 0,-230.3 z M 301.2,358 344.6,334.8 C 337.9,287 315.56728,260.7 271.94027,270.7 235.7,282.8 194.32124,331.2 194.6636,389.9 c 2.0364,51.8 22.97194,57.1 79.80205,52.5 33.03435,-2.1 33.80798,57.2 2.02031,69.2 C 248.1,522.1 235.32437,511.3 232.54433,486.8 L 188.6,502.5 c -0.1,24 7.5839,67.1 54.04585,65.1 C 300.9,563.8 342.40182,516.8 346.69156,456.5 351.4,388.8 305.20558,379.8 286.08241,383.5 227.9,392.8 238.96315,348.1 254.76768,335.3 276,317.4 297.55,330.3 301.2347,358 Z"
         style="fill:none;fill-rule:evenodd;stroke:#0fe500;stroke-width:1px"
         id="path4566"
         inkscape:connector-curvature="0" />
    </clipPath>
    <clipPath
       id="clipPath3478">
      <path
         d="M -26.642856,406 35.1,378.8 l 0,220 c -0.5,45.1 67.77605,24.4 66.47143,-43.2 L 101.5,337.7 l 58.2,-26 0,232.8 c 0.5,39.2 -13.76576,129.4 -87.771423,149 C -2.077079,713 -26.125867,673.8 -25.92857,617 L -26.642856,406 Z M 374.4,497.4 l 0,-242.4 40.4,-14.1 34.9,131.3 21.2,-149 53.5,-19.7 0,239.9 -32.8,13.1 -0.8,-126 -20.4,134.6 -36.4,11.6 -25.7,-120.2 0,129.8 -33.9,11.1 z m 187.9,-304.5 38.9,-15.7 0,189.9 62.1,-20.7 0,43.5 -101,33.3 0,-230.3 z M 301.2,358 344.6,334.8 C 337.9,287 315.56728,260.7 271.94027,270.7 235.7,282.8 194.32124,331.2 194.6636,389.9 c 2.0364,51.8 22.97194,57.1 79.80205,52.5 33.03435,-2.1 33.80798,57.2 2.02031,69.2 C 248.1,522.1 235.32437,511.3 232.54433,486.8 L 188.6,502.5 c -0.1,24 7.5839,67.1 54.04585,65.1 C 300.9,563.8 342.40182,516.8 346.69156,456.5 351.4,388.8 305.20558,379.8 286.08241,383.5 227.9,392.8 238.96315,348.1 254.76768,335.3 276,317.4 297.55,330.3 301.2347,358 Z"
         style="fill:none;fill-rule:evenodd;stroke:#0fe500;stroke-width:1px"
         id="path4569"
         inkscape:connector-curvature="0" />
    </clipPath>
    <clipPath
       id="clipPath3482">
      <path
         d="M -26.642856,406 35.1,378.8 l 0,220 c -0.5,45.1 67.77605,24.4 66.47143,-43.2 L 101.5,337.7 l 58.2,-26 0,232.8 c 0.5,39.2 -13.76576,129.4 -87.771423,149 C -2.077079,713 -26.125867,673.8 -25.92857,617 L -26.642856,406 Z M 374.4,497.4 l 0,-242.4 40.4,-14.1 34.9,131.3 21.2,-149 53.5,-19.7 0,239.9 -32.8,13.1 -0.8,-126 -20.4,134.6 -36.4,11.6 -25.7,-120.2 0,129.8 -33.9,11.1 z m 187.9,-304.5 38.9,-15.7 0,189.9 62.1,-20.7 0,43.5 -101,33.3 0,-230.3 z M 301.2,358 344.6,334.8 C 337.9,287 315.56728,260.7 271.94027,270.7 235.7,282.8 194.32124,331.2 194.6636,389.9 c 2.0364,51.8 22.97194,57.1 79.80205,52.5 33.03435,-2.1 33.80798,57.2 2.02031,69.2 C 248.1,522.1 235.32437,511.3 232.54433,486.8 L 188.6,502.5 c -0.1,24 7.5839,67.1 54.04585,65.1 C 300.9,563.8 342.40182,516.8 346.69156,456.5 351.4,388.8 305.20558,379.8 286.08241,383.5 227.9,392.8 238.96315,348.1 254.76768,335.3 276,317.4 297.55,330.3 301.2347,358 Z"
         style="fill:none;fill-rule:evenodd;stroke:#0fe500;stroke-width:1px"
         id="path4572"
         inkscape:connector-curvature="0" />
    </clipPath>
    <clipPath
       id="clipPath3486">
      <path
         d="M -26.642856,406 35.1,378.8 l 0,220 c -0.5,45.1 67.77605,24.4 66.47143,-43.2 L 101.5,337.7 l 58.2,-26 0,232.8 c 0.5,39.2 -13.76576,129.4 -87.771423,149 C -2.077079,713 -26.125867,673.8 -25.92857,617 L -26.642856,406 Z M 374.4,497.4 l 0,-242.4 40.4,-14.1 34.9,131.3 21.2,-149 53.5,-19.7 0,239.9 -32.8,13.1 -0.8,-126 -20.4,134.6 -36.4,11.6 -25.7,-120.2 0,129.8 -33.9,11.1 z m 187.9,-304.5 38.9,-15.7 0,189.9 62.1,-20.7 0,43.5 -101,33.3 0,-230.3 z M 301.2,358 344.6,334.8 C 337.9,287 315.56728,260.7 271.94027,270.7 235.7,282.8 194.32124,331.2 194.6636,389.9 c 2.0364,51.8 22.97194,57.1 79.80205,52.5 33.03435,-2.1 33.80798,57.2 2.02031,69.2 C 248.1,522.1 235.32437,511.3 232.54433,486.8 L 188.6,502.5 c -0.1,24 7.5839,67.1 54.04585,65.1 C 300.9,563.8 342.40182,516.8 346.69156,456.5 351.4,388.8 305.20558,379.8 286.08241,383.5 227.9,392.8 238.96315,348.1 254.76768,335.3 276,317.4 297.55,330.3 301.2347,358 Z"
         style="fill:none;fill-rule:evenodd;stroke:#0fe500;stroke-width:1px"
         id="path4575"
         inkscape:connector-curvature="0" />
    </clipPath>
    <clipPath
       id="clipPath3490">
      <path
         d="M -26.642856,406 35.1,378.8 l 0,220 c -0.5,45.1 67.77605,24.4 66.47143,-43.2 L 101.5,337.7 l 58.2,-26 0,232.8 c 0.5,39.2 -13.76576,129.4 -87.771423,149 C -2.077079,713 -26.125867,673.8 -25.92857,617 L -26.642856,406 Z M 374.4,497.4 l 0,-242.4 40.4,-14.1 34.9,131.3 21.2,-149 53.5,-19.7 0,239.9 -32.8,13.1 -0.8,-126 -20.4,134.6 -36.4,11.6 -25.7,-120.2 0,129.8 -33.9,11.1 z m 187.9,-304.5 38.9,-15.7 0,189.9 62.1,-20.7 0,43.5 -101,33.3 0,-230.3 z M 301.2,358 344.6,334.8 C 337.9,287 315.56728,260.7 271.94027,270.7 235.7,282.8 194.32124,331.2 194.6636,389.9 c 2.0364,51.8 22.97194,57.1 79.80205,52.5 33.03435,-2.1 33.80798,57.2 2.02031,69.2 C 248.1,522.1 235.32437,511.3 232.54433,486.8 L 188.6,502.5 c -0.1,24 7.5839,67.1 54.04585,65.1 C 300.9,563.8 342.40182,516.8 346.69156,456.5 351.4,388.8 305.20558,379.8 286.08241,383.5 227.9,392.8 238.96315,348.1 254.76768,335.3 276,317.4 297.55,330.3 301.2347,358 Z"
         style="fill:none;fill-rule:evenodd;stroke:#0fe500;stroke-width:1px"
         id="path4578"
         inkscape:connector-curvature="0" />
    </clipPath>
    <clipPath
       id="clipPath3494">
      <path
         d="M -26.642856,406 35.1,378.8 l 0,220 c -0.5,45.1 67.77605,24.4 66.47143,-43.2 L 101.5,337.7 l 58.2,-26 0,232.8 c 0.5,39.2 -13.76576,129.4 -87.771423,149 C -2.077079,713 -26.125867,673.8 -25.92857,617 L -26.642856,406 Z M 374.4,497.4 l 0,-242.4 40.4,-14.1 34.9,131.3 21.2,-149 53.5,-19.7 0,239.9 -32.8,13.1 -0.8,-126 -20.4,134.6 -36.4,11.6 -25.7,-120.2 0,129.8 -33.9,11.1 z m 187.9,-304.5 38.9,-15.7 0,189.9 62.1,-20.7 0,43.5 -101,33.3 0,-230.3 z M 301.2,358 344.6,334.8 C 337.9,287 315.56728,260.7 271.94027,270.7 235.7,282.8 194.32124,331.2 194.6636,389.9 c 2.0364,51.8 22.97194,57.1 79.80205,52.5 33.03435,-2.1 33.80798,57.2 2.02031,69.2 C 248.1,522.1 235.32437,511.3 232.54433,486.8 L 188.6,502.5 c -0.1,24 7.5839,67.1 54.04585,65.1 C 300.9,563.8 342.40182,516.8 346.69156,456.5 351.4,388.8 305.20558,379.8 286.08241,383.5 227.9,392.8 238.96315,348.1 254.76768,335.3 276,317.4 297.55,330.3 301.2347,358 Z"
         style="fill:none;fill-rule:evenodd;stroke:#0fe500;stroke-width:1px"
         id="path4581"
         inkscape:connector-curvature="0" />
    </clipPath>
    <clipPath
       id="clipPath3498">
      <path
         d="M -26.642856,406 35.1,378.8 l 0,220 c -0.5,45.1 67.77605,24.4 66.47143,-43.2 L 101.5,337.7 l 58.2,-26 0,232.8 c 0.5,39.2 -13.76576,129.4 -87.771423,149 C -2.077079,713 -26.125867,673.8 -25.92857,617 L -26.642856,406 Z M 374.4,497.4 l 0,-242.4 40.4,-14.1 34.9,131.3 21.2,-149 53.5,-19.7 0,239.9 -32.8,13.1 -0.8,-126 -20.4,134.6 -36.4,11.6 -25.7,-120.2 0,129.8 -33.9,11.1 z m 187.9,-304.5 38.9,-15.7 0,189.9 62.1,-20.7 0,43.5 -101,33.3 0,-230.3 z M 301.2,358 344.6,334.8 C 337.9,287 315.56728,260.7 271.94027,270.7 235.7,282.8 194.32124,331.2 194.6636,389.9 c 2.0364,51.8 22.97194,57.1 79.80205,52.5 33.03435,-2.1 33.80798,57.2 2.02031,69.2 C 248.1,522.1 235.32437,511.3 232.54433,486.8 L 188.6,502.5 c -0.1,24 7.5839,67.1 54.04585,65.1 C 300.9,563.8 342.40182,516.8 346.69156,456.5 351.4,388.8 305.20558,379.8 286.08241,383.5 227.9,392.8 238.96315,348.1 254.76768,335.3 276,317.4 297.55,330.3 301.2347,358 Z"
         style="fill:none;fill-rule:evenodd;stroke:#0fe500;stroke-width:1px"
         id="path4584"
         inkscape:connector-curvature="0" />
    </clipPath>
    <clipPath
       id="clipPath3502">
      <path
         d="M -26.642856,406 35.1,378.8 l 0,220 c -0.5,45.1 67.77605,24.4 66.47143,-43.2 L 101.5,337.7 l 58.2,-26 0,232.8 c 0.5,39.2 -13.76576,129.4 -87.771423,149 C -2.077079,713 -26.125867,673.8 -25.92857,617 L -26.642856,406 Z M 374.4,497.4 l 0,-242.4 40.4,-14.1 34.9,131.3 21.2,-149 53.5,-19.7 0,239.9 -32.8,13.1 -0.8,-126 -20.4,134.6 -36.4,11.6 -25.7,-120.2 0,129.8 -33.9,11.1 z m 187.9,-304.5 38.9,-15.7 0,189.9 62.1,-20.7 0,43.5 -101,33.3 0,-230.3 z M 301.2,358 344.6,334.8 C 337.9,287 315.56728,260.7 271.94027,270.7 235.7,282.8 194.32124,331.2 194.6636,389.9 c 2.0364,51.8 22.97194,57.1 79.80205,52.5 33.03435,-2.1 33.80798,57.2 2.02031,69.2 C 248.1,522.1 235.32437,511.3 232.54433,486.8 L 188.6,502.5 c -0.1,24 7.5839,67.1 54.04585,65.1 C 300.9,563.8 342.40182,516.8 346.69156,456.5 351.4,388.8 305.20558,379.8 286.08241,383.5 227.9,392.8 238.96315,348.1 254.76768,335.3 276,317.4 297.55,330.3 301.2347,358 Z"
         style="fill:none;fill-rule:evenodd;stroke:#0fe500;stroke-width:1px"
         id="path4587"
         inkscape:connector-curvature="0" />
    </clipPath>
    <clipPath
       id="clipPath3506">
      <path
         d="M -26.642856,406 35.1,378.8 l 0,220 c -0.5,45.1 67.77605,24.4 66.47143,-43.2 L 101.5,337.7 l 58.2,-26 0,232.8 c 0.5,39.2 -13.76576,129.4 -87.771423,149 C -2.077079,713 -26.125867,673.8 -25.92857,617 L -26.642856,406 Z M 374.4,497.4 l 0,-242.4 40.4,-14.1 34.9,131.3 21.2,-149 53.5,-19.7 0,239.9 -32.8,13.1 -0.8,-126 -20.4,134.6 -36.4,11.6 -25.7,-120.2 0,129.8 -33.9,11.1 z m 187.9,-304.5 38.9,-15.7 0,189.9 62.1,-20.7 0,43.5 -101,33.3 0,-230.3 z M 301.2,358 344.6,334.8 C 337.9,287 315.56728,260.7 271.94027,270.7 235.7,282.8 194.32124,331.2 194.6636,389.9 c 2.0364,51.8 22.97194,57.1 79.80205,52.5 33.03435,-2.1 33.80798,57.2 2.02031,69.2 C 248.1,522.1 235.32437,511.3 232.54433,486.8 L 188.6,502.5 c -0.1,24 7.5839,67.1 54.04585,65.1 C 300.9,563.8 342.40182,516.8 346.69156,456.5 351.4,388.8 305.20558,379.8 286.08241,383.5 227.9,392.8 238.96315,348.1 254.76768,335.3 276,317.4 297.55,330.3 301.2347,358 Z"
         style="fill:none;fill-rule:evenodd;stroke:#0fe500;stroke-width:1px"
         id="path4590"
         inkscape:connector-curvature="0" />
    </clipPath>
    <clipPath
       id="clipPath3510">
      <path
         d="M -26.642856,406 35.1,378.8 l 0,220 c -0.5,45.1 67.77605,24.4 66.47143,-43.2 L 101.5,337.7 l 58.2,-26 0,232.8 c 0.5,39.2 -13.76576,129.4 -87.771423,149 C -2.077079,713 -26.125867,673.8 -25.92857,617 L -26.642856,406 Z M 374.4,497.4 l 0,-242.4 40.4,-14.1 34.9,131.3 21.2,-149 53.5,-19.7 0,239.9 -32.8,13.1 -0.8,-126 -20.4,134.6 -36.4,11.6 -25.7,-120.2 0,129.8 -33.9,11.1 z m 187.9,-304.5 38.9,-15.7 0,189.9 62.1,-20.7 0,43.5 -101,33.3 0,-230.3 z M 301.2,358 344.6,334.8 C 337.9,287 315.56728,260.7 271.94027,270.7 235.7,282.8 194.32124,331.2 194.6636,389.9 c 2.0364,51.8 22.97194,57.1 79.80205,52.5 33.03435,-2.1 33.80798,57.2 2.02031,69.2 C 248.1,522.1 235.32437,511.3 232.54433,486.8 L 188.6,502.5 c -0.1,24 7.5839,67.1 54.04585,65.1 C 300.9,563.8 342.40182,516.8 346.69156,456.5 351.4,388.8 305.20558,379.8 286.08241,383.5 227.9,392.8 238.96315,348.1 254.76768,335.3 276,317.4 297.55,330.3 301.2347,358 Z"
         style="fill:none;fill-rule:evenodd;stroke:#0fe500;stroke-width:1px"
         id="path4593"
         inkscape:connector-curvature="0" />
    </clipPath>
    <clipPath
       id="clipPath3514">
      <path
         d="M -26.642856,406 35.1,378.8 l 0,220 c -0.5,45.1 67.77605,24.4 66.47143,-43.2 L 101.5,337.7 l 58.2,-26 0,232.8 c 0.5,39.2 -13.76576,129.4 -87.771423,149 C -2.077079,713 -26.125867,673.8 -25.92857,617 L -26.642856,406 Z M 374.4,497.4 l 0,-242.4 40.4,-14.1 34.9,131.3 21.2,-149 53.5,-19.7 0,239.9 -32.8,13.1 -0.8,-126 -20.4,134.6 -36.4,11.6 -25.7,-120.2 0,129.8 -33.9,11.1 z m 187.9,-304.5 38.9,-15.7 0,189.9 62.1,-20.7 0,43.5 -101,33.3 0,-230.3 z M 301.2,358 344.6,334.8 C 337.9,287 315.56728,260.7 271.94027,270.7 235.7,282.8 194.32124,331.2 194.6636,389.9 c 2.0364,51.8 22.97194,57.1 79.80205,52.5 33.03435,-2.1 33.80798,57.2 2.02031,69.2 C 248.1,522.1 235.32437,511.3 232.54433,486.8 L 188.6,502.5 c -0.1,24 7.5839,67.1 54.04585,65.1 C 300.9,563.8 342.40182,516.8 346.69156,456.5 351.4,388.8 305.20558,379.8 286.08241,383.5 227.9,392.8 238.96315,348.1 254.76768,335.3 276,317.4 297.55,330.3 301.2347,358 Z"
         style="fill:none;fill-rule:evenodd;stroke:#0fe500;stroke-width:1px"
         id="path4596"
         inkscape:connector-curvature="0" />
    </clipPath>
    <clipPath
       id="clipPath3518">
      <path
         d="M -26.642856,406 35.1,378.8 l 0,220 c -0.5,45.1 67.77605,24.4 66.47143,-43.2 L 101.5,337.7 l 58.2,-26 0,232.8 c 0.5,39.2 -13.76576,129.4 -87.771423,149 C -2.077079,713 -26.125867,673.8 -25.92857,617 L -26.642856,406 Z M 374.4,497.4 l 0,-242.4 40.4,-14.1 34.9,131.3 21.2,-149 53.5,-19.7 0,239.9 -32.8,13.1 -0.8,-126 -20.4,134.6 -36.4,11.6 -25.7,-120.2 0,129.8 -33.9,11.1 z m 187.9,-304.5 38.9,-15.7 0,189.9 62.1,-20.7 0,43.5 -101,33.3 0,-230.3 z M 301.2,358 344.6,334.8 C 337.9,287 315.56728,260.7 271.94027,270.7 235.7,282.8 194.32124,331.2 194.6636,389.9 c 2.0364,51.8 22.97194,57.1 79.80205,52.5 33.03435,-2.1 33.80798,57.2 2.02031,69.2 C 248.1,522.1 235.32437,511.3 232.54433,486.8 L 188.6,502.5 c -0.1,24 7.5839,67.1 54.04585,65.1 C 300.9,563.8 342.40182,516.8 346.69156,456.5 351.4,388.8 305.20558,379.8 286.08241,383.5 227.9,392.8 238.96315,348.1 254.76768,335.3 276,317.4 297.55,330.3 301.2347,358 Z"
         style="fill:none;fill-rule:evenodd;stroke:#0fe500;stroke-width:1px"
         id="path4599"
         inkscape:connector-curvature="0" />
    </clipPath>
    <clipPath
       id="clipPath3522">
      <path
         d="M -26.642856,406 35.1,378.8 l 0,220 c -0.5,45.1 67.77605,24.4 66.47143,-43.2 L 101.5,337.7 l 58.2,-26 0,232.8 c 0.5,39.2 -13.76576,129.4 -87.771423,149 C -2.077079,713 -26.125867,673.8 -25.92857,617 L -26.642856,406 Z M 374.4,497.4 l 0,-242.4 40.4,-14.1 34.9,131.3 21.2,-149 53.5,-19.7 0,239.9 -32.8,13.1 -0.8,-126 -20.4,134.6 -36.4,11.6 -25.7,-120.2 0,129.8 -33.9,11.1 z m 187.9,-304.5 38.9,-15.7 0,189.9 62.1,-20.7 0,43.5 -101,33.3 0,-230.3 z M 301.2,358 344.6,334.8 C 337.9,287 315.56728,260.7 271.94027,270.7 235.7,282.8 194.32124,331.2 194.6636,389.9 c 2.0364,51.8 22.97194,57.1 79.80205,52.5 33.03435,-2.1 33.80798,57.2 2.02031,69.2 C 248.1,522.1 235.32437,511.3 232.54433,486.8 L 188.6,502.5 c -0.1,24 7.5839,67.1 54.04585,65.1 C 300.9,563.8 342.40182,516.8 346.69156,456.5 351.4,388.8 305.20558,379.8 286.08241,383.5 227.9,392.8 238.96315,348.1 254.76768,335.3 276,317.4 297.55,330.3 301.2347,358 Z"
         style="fill:none;fill-rule:evenodd;stroke:#0fe500;stroke-width:1px"
         id="path4602"
         inkscape:connector-curvature="0" />
    </clipPath>
    <clipPath
       id="clipPath3526">
      <path
         d="m 72.1,530 61.7,-27.1 0.1,220 c -0.5,45 67.791,24.4 66.47005,-43.3 l -0.07,-217.8 58.2,-26.1 0,232.9 C 259,707.7 244.76143,797.9 170.76049,817.5 96.7,837.1 72.701298,797.8 72.884891,741.1 L 72.1,530 Z m 401.1,91.4 -0.1,-242.4 40.4,-14.2 34.9,131.3 21.2,-149 53.5,-19.7 0.1,239.9 -32.8,13.2 -0.8,-126 -20.4,134.6 -36.4,11.6 -25.8,-120.2 0,129.8 -33.8,11.1 z M 661,316.8 699.9,301.1 700,491 l 62.1,-20.7 0,43.5 -101,33.3 L 661,316.8 Z M 399.9,482 443.4,458.8 C 436.6,411 414.29466,384.7 370.67006,394.7 334.4,406.8 293.06565,455.2 293.42218,513.9 295.5,565.7 316.40793,571 373.23691,566.4 406.3,564.3 407.0587,623.6 375.27393,635.6 346.9,646.1 334.11228,635.3 331.32633,610.8 L 287.3,626.5 c 0,24 7.6859,67.1 54.14737,65.1 C 399.7,687.8 441.19104,640.7 445.46623,580.5 450.2,512.8 403.96172,503.8 384.83946,507.5 326.6,516.8 337.71163,472.1 353.51308,459.3 374.8,441.4 396.29419,454.3 399.98559,482 Z"
         style="fill:none;fill-rule:evenodd;stroke:#0fe500;stroke-width:1px"
         id="path4605"
         inkscape:connector-curvature="0" />
    </clipPath>
    <clipPath
       id="clipPath3530">
      <path
         d="M -26.642856,406 35.1,378.8 l 0,220 c -0.5,45.1 67.77605,24.4 66.47143,-43.2 L 101.5,337.7 l 58.2,-26 0,232.8 c 0.5,39.2 -13.76576,129.4 -87.771423,149 C -2.077079,713 -26.125867,673.8 -25.92857,617 L -26.642856,406 Z M 374.4,497.4 l 0,-242.4 40.4,-14.1 34.9,131.3 21.2,-149 53.5,-19.7 0,239.9 -32.8,13.1 -0.8,-126 -20.4,134.6 -36.4,11.6 -25.7,-120.2 0,129.8 -33.9,11.1 z m 187.9,-304.5 38.9,-15.7 0,189.9 62.1,-20.7 0,43.5 -101,33.3 0,-230.3 z M 301.2,358 344.6,334.8 C 337.9,287 315.56728,260.7 271.94027,270.7 235.7,282.8 194.32124,331.2 194.6636,389.9 c 2.0364,51.8 22.97194,57.1 79.80205,52.5 33.03435,-2.1 33.80798,57.2 2.02031,69.2 C 248.1,522.1 235.32437,511.3 232.54433,486.8 L 188.6,502.5 c -0.1,24 7.5839,67.1 54.04585,65.1 C 300.9,563.8 342.40182,516.8 346.69156,456.5 351.4,388.8 305.20558,379.8 286.08241,383.5 227.9,392.8 238.96315,348.1 254.76768,335.3 276,317.4 297.55,330.3 301.2347,358 Z"
         style="fill:none;fill-rule:evenodd;stroke:#0fe500;stroke-width:1px"
         id="path4608"
         inkscape:connector-curvature="0" />
    </clipPath>
    <clipPath
       id="clipPath3534">
      <path
         d="m 72.1,530 61.8,-27.1 0,220 c -0.5,45 67.76176,24.4 66.45714,-43.2 L 200.3,461.8 l 58.2,-26.1 0,232.9 C 259,707.8 244.71995,798 170.71429,817.5 96.7,837.1 72.659846,797.8 72.857143,741.1 L 72.1,530 Z m 401.1,91.5 0,-242.4 40.4,-14.2 34.9,131.3 21.2,-149 53.5,-19.7 0,240 -32.8,13.1 -0.8,-126 -20.4,134.6 -36.4,11.6 -25.8,-120.2 0,129.8 -33.8,11.1 z m 187.9,-304.6 38.9,-15.6 0,189.9 62.1,-20.7 0,43.4 -101,33.4 0,-230.4 z M 400,482.1 443.4,458.9 c -6.8,-47.8 -29.04701,-74.1 -72.67402,-64.2 -36.32598,12.2 -77.61903,60.6 -77.27667,119.2 2.05069,51.8 22.97194,57.2 79.80205,52.5 33.04864,-2 33.80798,57.2 2.02031,69.2 C 346.9,646.1 334.11008,635.4 331.33004,610.9 L 287.3,626.5 c 0,24 7.66961,67.2 54.13156,65.2 58.26844,-3.8 99.75597,-50.9 104.04571,-111.1 4.72273,-67.7 -41.48598,-76.7 -60.60915,-73 -58.26812,9.3 -47.11926,-35.5 -31.31473,-48.2 21.24661,-18 42.78232,-5 46.46702,22.7 z"
         style="fill:none;fill-rule:evenodd;stroke:#0fe500;stroke-width:1px"
         id="path4611"
         inkscape:connector-curvature="0" />
    </clipPath>
    <clipPath
       id="clipPath3538">
      <path
         d="M -26.642856,406 35.1,378.8 l 0,220 c -0.5,45.1 67.77605,24.4 66.47143,-43.2 L 101.5,337.7 l 58.2,-26 0,232.8 c 0.5,39.2 -13.76576,129.4 -87.771423,149 C -2.077079,713 -26.125867,673.8 -25.92857,617 L -26.642856,406 Z M 374.4,497.4 l 0,-242.4 40.4,-14.1 34.9,131.3 21.2,-149 53.5,-19.7 0,239.9 -32.8,13.1 -0.8,-126 -20.4,134.6 -36.4,11.6 -25.7,-120.2 0,129.8 -33.9,11.1 z m 187.9,-304.5 38.9,-15.7 0,189.9 62.1,-20.7 0,43.5 -101,33.3 0,-230.3 z M 301.2,358 344.6,334.8 C 337.9,287 315.56728,260.7 271.94027,270.7 235.7,282.8 194.32124,331.2 194.6636,389.9 c 2.0364,51.8 22.97194,57.1 79.80205,52.5 33.03435,-2.1 33.80798,57.2 2.02031,69.2 C 248.1,522.1 235.32437,511.3 232.54433,486.8 L 188.6,502.5 c -0.1,24 7.5839,67.1 54.04585,65.1 C 300.9,563.8 342.40182,516.8 346.69156,456.5 351.4,388.8 305.20558,379.8 286.08241,383.5 227.9,392.8 238.96315,348.1 254.76768,335.3 276,317.4 297.55,330.3 301.2347,358 Z"
         style="fill:none;fill-rule:evenodd;stroke:#0fe500;stroke-width:1px"
         id="path4614"
         inkscape:connector-curvature="0" />
    </clipPath>
    <clipPath
       id="clipPath3542">
      <path
         d="M -26.642856,406 35.1,378.8 l 0,220 c -0.5,45.1 67.77605,24.4 66.47143,-43.2 L 101.5,337.7 l 58.2,-26 0,232.8 c 0.5,39.2 -13.76576,129.4 -87.771423,149 C -2.077079,713 -26.125867,673.8 -25.92857,617 L -26.642856,406 Z M 374.4,497.4 l 0,-242.4 40.4,-14.1 34.9,131.3 21.2,-149 53.5,-19.7 0,239.9 -32.8,13.1 -0.8,-126 -20.4,134.6 -36.4,11.6 -25.7,-120.2 0,129.8 -33.9,11.1 z m 187.9,-304.5 38.9,-15.7 0,189.9 62.1,-20.7 0,43.5 -101,33.3 0,-230.3 z M 301.2,358 344.6,334.8 C 337.9,287 315.56728,260.7 271.94027,270.7 235.7,282.8 194.32124,331.2 194.6636,389.9 c 2.0364,51.8 22.97194,57.1 79.80205,52.5 33.03435,-2.1 33.80798,57.2 2.02031,69.2 C 248.1,522.1 235.32437,511.3 232.54433,486.8 L 188.6,502.5 c -0.1,24 7.5839,67.1 54.04585,65.1 C 300.9,563.8 342.40182,516.8 346.69156,456.5 351.4,388.8 305.20558,379.8 286.08241,383.5 227.9,392.8 238.96315,348.1 254.76768,335.3 276,317.4 297.55,330.3 301.2347,358 Z"
         style="fill:none;fill-rule:evenodd;stroke:#0fe500;stroke-width:1px"
         id="path4617"
         inkscape:connector-curvature="0" />
    </clipPath>
    <clipPath
       id="clipPath3546">
      <path
         d="M -26.642856,406 35.1,378.8 l 0,220 c -0.5,45.1 67.77605,24.4 66.47143,-43.2 L 101.5,337.7 l 58.2,-26 0,232.8 c 0.5,39.2 -13.76576,129.4 -87.771423,149 C -2.077079,713 -26.125867,673.8 -25.92857,617 L -26.642856,406 Z M 374.4,497.4 l 0,-242.4 40.4,-14.1 34.9,131.3 21.2,-149 53.5,-19.7 0,239.9 -32.8,13.1 -0.8,-126 -20.4,134.6 -36.4,11.6 -25.7,-120.2 0,129.8 -33.9,11.1 z m 187.9,-304.5 38.9,-15.7 0,189.9 62.1,-20.7 0,43.5 -101,33.3 0,-230.3 z M 301.2,358 344.6,334.8 C 337.9,287 315.56728,260.7 271.94027,270.7 235.7,282.8 194.32124,331.2 194.6636,389.9 c 2.0364,51.8 22.97194,57.1 79.80205,52.5 33.03435,-2.1 33.80798,57.2 2.02031,69.2 C 248.1,522.1 235.32437,511.3 232.54433,486.8 L 188.6,502.5 c -0.1,24 7.5839,67.1 54.04585,65.1 C 300.9,563.8 342.40182,516.8 346.69156,456.5 351.4,388.8 305.20558,379.8 286.08241,383.5 227.9,392.8 238.96315,348.1 254.76768,335.3 276,317.4 297.55,330.3 301.2347,358 Z"
         style="fill:none;fill-rule:evenodd;stroke:#0fe500;stroke-width:1px"
         id="path4620"
         inkscape:connector-curvature="0" />
    </clipPath>
    <clipPath
       id="clipPath3550">
      <path
         d="M -26.642856,406 35.1,378.8 l 0,220 c -0.5,45.1 67.77605,24.4 66.47143,-43.2 L 101.5,337.7 l 58.2,-26 0,232.8 c 0.5,39.2 -13.76576,129.4 -87.771423,149 C -2.077079,713 -26.125867,673.8 -25.92857,617 L -26.642856,406 Z M 374.4,497.4 l 0,-242.4 40.4,-14.1 34.9,131.3 21.2,-149 53.5,-19.7 0,239.9 -32.8,13.1 -0.8,-126 -20.4,134.6 -36.4,11.6 -25.7,-120.2 0,129.8 -33.9,11.1 z m 187.9,-304.5 38.9,-15.7 0,189.9 62.1,-20.7 0,43.5 -101,33.3 0,-230.3 z M 301.2,358 344.6,334.8 C 337.9,287 315.56728,260.7 271.94027,270.7 235.7,282.8 194.32124,331.2 194.6636,389.9 c 2.0364,51.8 22.97194,57.1 79.80205,52.5 33.03435,-2.1 33.80798,57.2 2.02031,69.2 C 248.1,522.1 235.32437,511.3 232.54433,486.8 L 188.6,502.5 c -0.1,24 7.5839,67.1 54.04585,65.1 C 300.9,563.8 342.40182,516.8 346.69156,456.5 351.4,388.8 305.20558,379.8 286.08241,383.5 227.9,392.8 238.96315,348.1 254.76768,335.3 276,317.4 297.55,330.3 301.2347,358 Z"
         style="fill:none;fill-rule:evenodd;stroke:#0fe500;stroke-width:1px"
         id="path4623"
         inkscape:connector-curvature="0" />
    </clipPath>
    <clipPath
       id="clipPath3554">
      <path
         d="M -26.642856,406 35.1,378.8 l 0,220 c -0.5,45.1 67.77605,24.4 66.47143,-43.2 L 101.5,337.7 l 58.2,-26 0,232.8 c 0.5,39.2 -13.76576,129.4 -87.771423,149 C -2.077079,713 -26.125867,673.8 -25.92857,617 L -26.642856,406 Z M 374.4,497.4 l 0,-242.4 40.4,-14.1 34.9,131.3 21.2,-149 53.5,-19.7 0,239.9 -32.8,13.1 -0.8,-126 -20.4,134.6 -36.4,11.6 -25.7,-120.2 0,129.8 -33.9,11.1 z m 187.9,-304.5 38.9,-15.7 0,189.9 62.1,-20.7 0,43.5 -101,33.3 0,-230.3 z M 301.2,358 344.6,334.8 C 337.9,287 315.56728,260.7 271.94027,270.7 235.7,282.8 194.32124,331.2 194.6636,389.9 c 2.0364,51.8 22.97194,57.1 79.80205,52.5 33.03435,-2.1 33.80798,57.2 2.02031,69.2 C 248.1,522.1 235.32437,511.3 232.54433,486.8 L 188.6,502.5 c -0.1,24 7.5839,67.1 54.04585,65.1 C 300.9,563.8 342.40182,516.8 346.69156,456.5 351.4,388.8 305.20558,379.8 286.08241,383.5 227.9,392.8 238.96315,348.1 254.76768,335.3 276,317.4 297.55,330.3 301.2347,358 Z"
         style="fill:none;fill-rule:evenodd;stroke:#0fe500;stroke-width:1px"
         id="path4626"
         inkscape:connector-curvature="0" />
    </clipPath>
    <clipPath
       id="clipPath3558">
      <path
         d="M -26.642856,406 35.1,378.8 l 0,220 c -0.5,45.1 67.77605,24.4 66.47143,-43.2 L 101.5,337.7 l 58.2,-26 0,232.8 c 0.5,39.2 -13.76576,129.4 -87.771423,149 C -2.077079,713 -26.125867,673.8 -25.92857,617 L -26.642856,406 Z M 374.4,497.4 l 0,-242.4 40.4,-14.1 34.9,131.3 21.2,-149 53.5,-19.7 0,239.9 -32.8,13.1 -0.8,-126 -20.4,134.6 -36.4,11.6 -25.7,-120.2 0,129.8 -33.9,11.1 z m 187.9,-304.5 38.9,-15.7 0,189.9 62.1,-20.7 0,43.5 -101,33.3 0,-230.3 z M 301.2,358 344.6,334.8 C 337.9,287 315.56728,260.7 271.94027,270.7 235.7,282.8 194.32124,331.2 194.6636,389.9 c 2.0364,51.8 22.97194,57.1 79.80205,52.5 33.03435,-2.1 33.80798,57.2 2.02031,69.2 C 248.1,522.1 235.32437,511.3 232.54433,486.8 L 188.6,502.5 c -0.1,24 7.5839,67.1 54.04585,65.1 C 300.9,563.8 342.40182,516.8 346.69156,456.5 351.4,388.8 305.20558,379.8 286.08241,383.5 227.9,392.8 238.96315,348.1 254.76768,335.3 276,317.4 297.55,330.3 301.2347,358 Z"
         style="fill:none;fill-rule:evenodd;stroke:#0fe500;stroke-width:1px"
         id="path4629"
         inkscape:connector-curvature="0" />
    </clipPath>
    <clipPath
       id="clipPath3562">
      <path
         d="M -26.642856,406 35.1,378.8 l 0,220 c -0.5,45.1 67.77605,24.4 66.47143,-43.2 L 101.5,337.7 l 58.2,-26 0,232.8 c 0.5,39.2 -13.76576,129.4 -87.771423,149 C -2.077079,713 -26.125867,673.8 -25.92857,617 L -26.642856,406 Z M 374.4,497.4 l 0,-242.4 40.4,-14.1 34.9,131.3 21.2,-149 53.5,-19.7 0,239.9 -32.8,13.1 -0.8,-126 -20.4,134.6 -36.4,11.6 -25.7,-120.2 0,129.8 -33.9,11.1 z m 187.9,-304.5 38.9,-15.7 0,189.9 62.1,-20.7 0,43.5 -101,33.3 0,-230.3 z M 301.2,358 344.6,334.8 C 337.9,287 315.56728,260.7 271.94027,270.7 235.7,282.8 194.32124,331.2 194.6636,389.9 c 2.0364,51.8 22.97194,57.1 79.80205,52.5 33.03435,-2.1 33.80798,57.2 2.02031,69.2 C 248.1,522.1 235.32437,511.3 232.54433,486.8 L 188.6,502.5 c -0.1,24 7.5839,67.1 54.04585,65.1 C 300.9,563.8 342.40182,516.8 346.69156,456.5 351.4,388.8 305.20558,379.8 286.08241,383.5 227.9,392.8 238.96315,348.1 254.76768,335.3 276,317.4 297.55,330.3 301.2347,358 Z"
         style="fill:none;fill-rule:evenodd;stroke:#0fe500;stroke-width:1px"
         id="path4632"
         inkscape:connector-curvature="0" />
    </clipPath>
    <clipPath
       id="clipPath3566">
      <path
         d="M -26.642856,406 35.1,378.8 l 0,220 c -0.5,45.1 67.77605,24.4 66.47143,-43.2 L 101.5,337.7 l 58.2,-26 0,232.8 c 0.5,39.2 -13.76576,129.4 -87.771423,149 C -2.077079,713 -26.125867,673.8 -25.92857,617 L -26.642856,406 Z M 374.4,497.4 l 0,-242.4 40.4,-14.1 34.9,131.3 21.2,-149 53.5,-19.7 0,239.9 -32.8,13.1 -0.8,-126 -20.4,134.6 -36.4,11.6 -25.7,-120.2 0,129.8 -33.9,11.1 z m 187.9,-304.5 38.9,-15.7 0,189.9 62.1,-20.7 0,43.5 -101,33.3 0,-230.3 z M 301.2,358 344.6,334.8 C 337.9,287 315.56728,260.7 271.94027,270.7 235.7,282.8 194.32124,331.2 194.6636,389.9 c 2.0364,51.8 22.97194,57.1 79.80205,52.5 33.03435,-2.1 33.80798,57.2 2.02031,69.2 C 248.1,522.1 235.32437,511.3 232.54433,486.8 L 188.6,502.5 c -0.1,24 7.5839,67.1 54.04585,65.1 C 300.9,563.8 342.40182,516.8 346.69156,456.5 351.4,388.8 305.20558,379.8 286.08241,383.5 227.9,392.8 238.96315,348.1 254.76768,335.3 276,317.4 297.55,330.3 301.2347,358 Z"
         style="fill:none;fill-rule:evenodd;stroke:#0fe500;stroke-width:1px"
         id="path4635"
         inkscape:connector-curvature="0" />
    </clipPath>
    <clipPath
       id="clipPath3570">
      <path
         d="M -26.642856,406 35.1,378.8 l 0,220 c -0.5,45.1 67.77605,24.4 66.47143,-43.2 L 101.5,337.7 l 58.2,-26 0,232.8 c 0.5,39.2 -13.76576,129.4 -87.771423,149 C -2.077079,713 -26.125867,673.8 -25.92857,617 L -26.642856,406 Z M 374.4,497.4 l 0,-242.4 40.4,-14.1 34.9,131.3 21.2,-149 53.5,-19.7 0,239.9 -32.8,13.1 -0.8,-126 -20.4,134.6 -36.4,11.6 -25.7,-120.2 0,129.8 -33.9,11.1 z m 187.9,-304.5 38.9,-15.7 0,189.9 62.1,-20.7 0,43.5 -101,33.3 0,-230.3 z M 301.2,358 344.6,334.8 C 337.9,287 315.56728,260.7 271.94027,270.7 235.7,282.8 194.32124,331.2 194.6636,389.9 c 2.0364,51.8 22.97194,57.1 79.80205,52.5 33.03435,-2.1 33.80798,57.2 2.02031,69.2 C 248.1,522.1 235.32437,511.3 232.54433,486.8 L 188.6,502.5 c -0.1,24 7.5839,67.1 54.04585,65.1 C 300.9,563.8 342.40182,516.8 346.69156,456.5 351.4,388.8 305.20558,379.8 286.08241,383.5 227.9,392.8 238.96315,348.1 254.76768,335.3 276,317.4 297.55,330.3 301.2347,358 Z"
         style="fill:none;fill-rule:evenodd;stroke:#0fe500;stroke-width:1px"
         id="path4638"
         inkscape:connector-curvature="0" />
    </clipPath>
    <clipPath
       id="clipPath3574">
      <path
         d="M -26.642856,406 35.1,378.8 l 0,220 c -0.5,45.1 67.77605,24.4 66.47143,-43.2 L 101.5,337.7 l 58.2,-26 0,232.8 c 0.5,39.2 -13.76576,129.4 -87.771423,149 C -2.077079,713 -26.125867,673.8 -25.92857,617 L -26.642856,406 Z M 374.4,497.4 l 0,-242.4 40.4,-14.1 34.9,131.3 21.2,-149 53.5,-19.7 0,239.9 -32.8,13.1 -0.8,-126 -20.4,134.6 -36.4,11.6 -25.7,-120.2 0,129.8 -33.9,11.1 z m 187.9,-304.5 38.9,-15.7 0,189.9 62.1,-20.7 0,43.5 -101,33.3 0,-230.3 z M 301.2,358 344.6,334.8 C 337.9,287 315.56728,260.7 271.94027,270.7 235.7,282.8 194.32124,331.2 194.6636,389.9 c 2.0364,51.8 22.97194,57.1 79.80205,52.5 33.03435,-2.1 33.80798,57.2 2.02031,69.2 C 248.1,522.1 235.32437,511.3 232.54433,486.8 L 188.6,502.5 c -0.1,24 7.5839,67.1 54.04585,65.1 C 300.9,563.8 342.40182,516.8 346.69156,456.5 351.4,388.8 305.20558,379.8 286.08241,383.5 227.9,392.8 238.96315,348.1 254.76768,335.3 276,317.4 297.55,330.3 301.2347,358 Z"
         style="fill:none;fill-rule:evenodd;stroke:#0fe500;stroke-width:1px"
         id="path4641"
         inkscape:connector-curvature="0" />
    </clipPath>
    <clipPath
       id="clipPath3578">
      <path
         d="M -26.642856,406 35.1,378.8 l 0,220 c -0.5,45.1 67.77605,24.4 66.47143,-43.2 L 101.5,337.7 l 58.2,-26 0,232.8 c 0.5,39.2 -13.76576,129.4 -87.771423,149 C -2.077079,713 -26.125867,673.8 -25.92857,617 L -26.642856,406 Z M 374.4,497.4 l 0,-242.4 40.4,-14.1 34.9,131.3 21.2,-149 53.5,-19.7 0,239.9 -32.8,13.1 -0.8,-126 -20.4,134.6 -36.4,11.6 -25.7,-120.2 0,129.8 -33.9,11.1 z m 187.9,-304.5 38.9,-15.7 0,189.9 62.1,-20.7 0,43.5 -101,33.3 0,-230.3 z M 301.2,358 344.6,334.8 C 337.9,287 315.56728,260.7 271.94027,270.7 235.7,282.8 194.32124,331.2 194.6636,389.9 c 2.0364,51.8 22.97194,57.1 79.80205,52.5 33.03435,-2.1 33.80798,57.2 2.02031,69.2 C 248.1,522.1 235.32437,511.3 232.54433,486.8 L 188.6,502.5 c -0.1,24 7.5839,67.1 54.04585,65.1 C 300.9,563.8 342.40182,516.8 346.69156,456.5 351.4,388.8 305.20558,379.8 286.08241,383.5 227.9,392.8 238.96315,348.1 254.76768,335.3 276,317.4 297.55,330.3 301.2347,358 Z"
         style="fill:none;fill-rule:evenodd;stroke:#0fe500;stroke-width:1px"
         id="path4644"
         inkscape:connector-curvature="0" />
    </clipPath>
    <clipPath
       id="clipPath3582">
      <path
         d="M -26.642856,406 35.1,378.8 l 0,220 c -0.5,45.1 67.77605,24.4 66.47143,-43.2 L 101.5,337.7 l 58.2,-26 0,232.8 c 0.5,39.2 -13.76576,129.4 -87.771423,149 C -2.077079,713 -26.125867,673.8 -25.92857,617 L -26.642856,406 Z M 374.4,497.4 l 0,-242.4 40.4,-14.1 34.9,131.3 21.2,-149 53.5,-19.7 0,239.9 -32.8,13.1 -0.8,-126 -20.4,134.6 -36.4,11.6 -25.7,-120.2 0,129.8 -33.9,11.1 z m 187.9,-304.5 38.9,-15.7 0,189.9 62.1,-20.7 0,43.5 -101,33.3 0,-230.3 z M 301.2,358 344.6,334.8 C 337.9,287 315.56728,260.7 271.94027,270.7 235.7,282.8 194.32124,331.2 194.6636,389.9 c 2.0364,51.8 22.97194,57.1 79.80205,52.5 33.03435,-2.1 33.80798,57.2 2.02031,69.2 C 248.1,522.1 235.32437,511.3 232.54433,486.8 L 188.6,502.5 c -0.1,24 7.5839,67.1 54.04585,65.1 C 300.9,563.8 342.40182,516.8 346.69156,456.5 351.4,388.8 305.20558,379.8 286.08241,383.5 227.9,392.8 238.96315,348.1 254.76768,335.3 276,317.4 297.55,330.3 301.2347,358 Z"
         style="fill:none;fill-rule:evenodd;stroke:#0fe500;stroke-width:1px"
         id="path4647"
         inkscape:connector-curvature="0" />
    </clipPath>
    <clipPath
       id="clipPath3586">
      <path
         d="M -26.642856,406 35.1,378.8 l 0,220 c -0.5,45.1 67.77605,24.4 66.47143,-43.2 L 101.5,337.7 l 58.2,-26 0,232.8 c 0.5,39.2 -13.76576,129.4 -87.771423,149 C -2.077079,713 -26.125867,673.8 -25.92857,617 L -26.642856,406 Z M 374.4,497.4 l 0,-242.4 40.4,-14.1 34.9,131.3 21.2,-149 53.5,-19.7 0,239.9 -32.8,13.1 -0.8,-126 -20.4,134.6 -36.4,11.6 -25.7,-120.2 0,129.8 -33.9,11.1 z m 187.9,-304.5 38.9,-15.7 0,189.9 62.1,-20.7 0,43.5 -101,33.3 0,-230.3 z M 301.2,358 344.6,334.8 C 337.9,287 315.56728,260.7 271.94027,270.7 235.7,282.8 194.32124,331.2 194.6636,389.9 c 2.0364,51.8 22.97194,57.1 79.80205,52.5 33.03435,-2.1 33.80798,57.2 2.02031,69.2 C 248.1,522.1 235.32437,511.3 232.54433,486.8 L 188.6,502.5 c -0.1,24 7.5839,67.1 54.04585,65.1 C 300.9,563.8 342.40182,516.8 346.69156,456.5 351.4,388.8 305.20558,379.8 286.08241,383.5 227.9,392.8 238.96315,348.1 254.76768,335.3 276,317.4 297.55,330.3 301.2347,358 Z"
         style="fill:none;fill-rule:evenodd;stroke:#0fe500;stroke-width:1px"
         id="path4650"
         inkscape:connector-curvature="0" />
    </clipPath>
    <clipPath
       id="clipPath3590">
      <path
         d="m 72.1,530 61.8,-27.1 0,220 c -0.5,45 67.76176,24.4 66.45714,-43.2 L 200.3,461.8 l 58.2,-26.1 0,232.9 C 259,707.8 244.71995,798 170.71429,817.5 96.7,837.1 72.659846,797.8 72.857143,741.1 L 72.1,530 Z m 401.1,91.5 0,-242.4 40.4,-14.2 34.9,131.3 21.2,-149 53.5,-19.7 0,240 -32.8,13.1 -0.8,-126 -20.4,134.6 -36.4,11.6 -25.8,-120.2 0,129.8 -33.8,11.1 z m 187.9,-304.6 38.9,-15.6 0,189.9 62.1,-20.7 0,43.4 -101,33.4 0,-230.4 z M 400,482.1 443.4,458.9 c -6.8,-47.8 -29.04701,-74.1 -72.67402,-64.2 -36.32598,12.2 -77.61903,60.6 -77.27667,119.2 2.05069,51.8 22.97194,57.2 79.80205,52.5 33.04864,-2 33.80798,57.2 2.02031,69.2 C 346.9,646.1 334.11008,635.4 331.33004,610.9 L 287.3,626.5 c 0,24 7.66961,67.2 54.13156,65.2 58.26844,-3.8 99.75597,-50.9 104.04571,-111.1 4.72273,-67.7 -41.48598,-76.7 -60.60915,-73 -58.26812,9.3 -47.11926,-35.5 -31.31473,-48.2 21.24661,-18 42.78232,-5 46.46702,22.7 z"
         style="fill:none;fill-rule:evenodd;stroke:#0fe500;stroke-width:1px"
         id="path4653"
         inkscape:connector-curvature="0" />
    </clipPath>
  </defs>
  <g
     transform="translate(139.05549,867.40306)"
     id="layer1">
    <g
       id="g5412"
       transform="matrix(2.6497515,0,0,2.3116227,-1502.1365,-891.74247)">
      <path
         inkscape:connector-curvature="0"
         id="path5410"
         d="m 610.99907,324.51859 -66.43675,44.66652 -18.76745,24.39768 -6.38093,12.76187 -1.87675,9.38372 25.52373,4.87953 9.75907,0.37535 29.27722,4.50419 6.38093,2.62744 13.13721,-10.88512 13.51256,-12.76186 -0.37535,-80.70001 z"
         style="fill:#ffffff;fill-opacity:1;fill-rule:evenodd;stroke:none;stroke-width:1px;stroke-linecap:butt;stroke-linejoin:miter;stroke-opacity:1" />
      <path
         sodipodi:nodetypes="ccccccccccccccccccccccccccccc"
         inkscape:connector-curvature="0"
         id="path4674"
         style="opacity:1;fill:#ffffff;fill-rule:nonzero;stroke:#09fff7;stroke-width:0.2"
         d="M 723,11.2 C 703,12.4 662.95227,70.6 643.35715,128 L 618.7,117.3 l -5.4,5 -5.67312,198.27527 -0.0828,5.97097 -2.33656,88.57204 31.31505,27.71613 c -13,27.5 -29.79405,57.26559 -20.45623,87.36559 L 556.2,633.7 c -6.1,14.8 -7.86757,29.2 -2.48571,43.3 L 646.9,580.5 l 65.3,-7.5 1.8,10 21.1,9.7 13.6,-14 13.9,-21.4 19.6,10.4 13.6,-26.8 25.4,-0.7 84.2,36 2.5,-6.4 C 916.1,530.1 894.04163,494 870.50001,458 L 801.5,349.1 l -6,-66.4 -0.8,-91.1 -13.9,-5.7 -25.3,-69.7 C 748.9,75.3 752.40849,20.5 723,11.2 Z" />
      <path
         id="path4676"
         style="opacity:1;fill:none;fill-rule:nonzero;stroke:#000000;stroke-width:3"
         d="m 661.9,181.2 0,171.87647"
         inkscape:connector-curvature="0" />
      <path
         id="path4678"
         style="opacity:1;fill:none;fill-rule:nonzero;stroke:#000000;stroke-width:3"
         d="m 656.2,349.1 0,-172.45211"
         inkscape:connector-curvature="0" />
      <path
         id="path4680"
         style="opacity:1;fill:none;fill-rule:nonzero;stroke:#000000;stroke-width:3"
         d="m 689,260.5 -20,13.2 0,93.6 c 3.8,5.2 7.44752,10.3 14.00001,16.4 -17.20001,6.3 -28.98197,24 -6.42858,38.6 10.22857,6.9 36.19048,11.2 54.28572,1.84789"
         inkscape:connector-curvature="0" />
      <path
         id="path4682"
         style="opacity:1;fill:none;fill-rule:nonzero;stroke:#000000;stroke-width:2"
         d="m 620.6,409.4 -0.2,20.59309"
         inkscape:connector-curvature="0" />
      <path
         id="path4686"
         style="opacity:1;fill:none;fill-rule:nonzero;stroke:#000000;stroke-width:3"
         d="m 602.5,415.8 34.1,26.5 c -18.3,23.8 -26.95624,53 -20.95532,88.20328"
         inkscape:connector-curvature="0" />
      <path
         id="path4688"
         style="opacity:1;fill:none;fill-rule:nonzero;stroke:#000000;stroke-width:8"
         d="m 660,394.8 -1,27.8 -26.7,-17.1031"
         inkscape:connector-curvature="0" />
      <path
         id="path4690"
         style="opacity:1;fill:none;fill-rule:nonzero;stroke:#000000;stroke-width:5"
         d="m 615.3,325.4 -15,8.75116"
         inkscape:connector-curvature="0" />
      <path
         inkscape:connector-curvature="0"
         id="path4692"
         style="opacity:1;fill:none;fill-rule:nonzero;stroke:#000000;stroke-width:6.8134985"
         d="m 614.67291,122.83475 -0.61798,236.07031" />
      <path
         sodipodi:nodetypes="cccccccccccccccccc"
         inkscape:connector-curvature="0"
         id="path4770"
         style="opacity:1;fill:#000000;fill-rule:nonzero;stroke:none;stroke-width:0.5"
         d="M 698.3493,27.178344 C 706.2493,18.478344 710.82802,6.6 725.85715,11.8 751.6,22.5 756.20291,54.6 761.21429,76.4 L 771,127.5 l 9.1,57.7 c 5.3,1.7 10.34526,3.7 14.68572,6.6 l -0.0857,10 C 776,193.4 758.81692,180.7 731.39286,195.5 L 725.6,189.8 c 11.7,-8 23.92524,-8.3 38.56072,-7 L 763.7,148 c -2.6,-0.2 -5.11604,-0.4 -5.34285,-3.9 L 758.3,139.8 c -2,-7.5 -15.48925,-2.8 -23.51428,-3.9 C 734.6,106.8 734.15391,77.8 725.14286,50.2 722.3,43 720.04319,35.4 709.42858,35.2 705.4,29.1 704.14586,29.284331 698.72649,28.884331 Z" />
      <path
         id="path4772"
         style="opacity:1;fill:#000000;fill-rule:nonzero;stroke:none;stroke-width:0.5"
         d="m 796.9,298.4 c 11.5,68.9 59.65677,123.7 92.74856,180 9.25144,15.8 21.19273,36.7 20.96063,69.7 l -0.30919,7.4 -11.9,-2.6 -84.8,-46.4 -29.1,-14.9 -3.5,-12.2 120,64.2 c -2.3,-31.1 -26.29892,-65.7 -40.89841,-86.9 L 795.9,355.9 l 1,-57.5 z"
         inkscape:connector-curvature="0" />
      <path
         id="path4774"
         style="opacity:1;fill:#000000;fill-rule:nonzero;stroke:none;stroke-width:0.5"
         transform="translate(-98.785713,-118.06639)"
         d="m 789.6,192.39285 a 2.3214285,2.6785715 0 1 1 -4.60002,-0.0928 2.3217787,2.6789755 0 1 1 4.64286,0.0928 z"
         inkscape:connector-curvature="0" />
      <path
         id="path4776"
         style="opacity:1;fill:#000000;fill-rule:nonzero;stroke:none;stroke-width:0.5"
         transform="translate(-94.67857,-115.74496)"
         d="m 789.6,192.39285 a 2.3214285,2.6785715 0 1 1 -4.60002,-0.0928 2.3217787,2.6789755 0 1 1 4.64286,0.0928 z"
         inkscape:connector-curvature="0" />
      <path
         id="path4778"
         style="opacity:1;fill:#000000;fill-rule:nonzero;stroke:none;stroke-width:0.5"
         transform="translate(-90.392856,-113.06639)"
         d="m 789.6,192.39285 a 2.3214285,2.6785715 0 1 1 -4.60002,-0.0928 2.3217787,2.6789755 0 1 1 4.64286,0.0928 z"
         inkscape:connector-curvature="0" />
      <path
         id="path4780"
         style="fill:#000000;fill-rule:nonzero;stroke:none;stroke-width:0.5"
         d="m 664.6,172.8 c 4.2,-4.5 -4.68129,-11.7 -8.92142,-8.9 -4.17858,4.3 1.34168,13.6 8.92857,8.9 z m 1.7,0.4 c -2.3,3.6 5.0603,12.1 10.62858,6.4 1.67142,-6.7 -6.83408,-10.7 -10.53572,-6.4 z m -15.7,-61.8 c 1.8,-1.8 10.87411,3 10.43572,5 L 657.1,125.7 c -1.8,3.5 -12.61883,3.4 -12.49285,2.1 L 650.6,111.4 Z m 13.1,8.2 c 5.5,-5.1 12.80444,-3.8 13.40715,-0.1 -3.50715,5.7 -7.14215,11 -13.39286,12.1 -5.31429,-0.4 -1.64859,-10.9 0,-12 z m 13.7,5.9 c 2.2,-7.5 5.05698,-5.5 9.88572,-1.9 3.11428,3.2 5.55829,5.8 1.96429,8.4 -4.55001,5.2 -9.17455,11.5 -12.32143,4.8 -0.72858,-3.8 -0.24664,-7.5 0.53571,-11.3 z m 16.8,24.3 c -8.9,2.7 -12.90537,-5.7 -5.84285,-12.8 5.74285,-6.2 10.19343,-4.1 17.85714,0.3 9.48571,5.3 -2.61019,10.2 -11.96428,12.5 z m 17.9,14.1 c -6.1,0 -11.8826,-0.2 -16.95714,-1.2 -8.94286,-7 -1.23663,-10.1 3.21429,-10.6 6.34285,-1 9.643,-2 12.32143,-3 3.52142,-0.1 2.46206,9.6 1.42857,14.8 z"
         inkscape:connector-curvature="0" />
      <path
         id="path4782"
         style="opacity:1;fill:#000000;fill-rule:nonzero;stroke:none;stroke-width:0.5"
         d="m 826.3,542.8 c -14.6,-2 -27.08505,-0.5 -35.97857,7.4 L 798,529.5 l 28.3,13.3 z"
         inkscape:connector-curvature="0" />
      <path
         id="path4784"
         style="opacity:1;fill:#000000;fill-rule:nonzero;stroke:none;stroke-width:0.5"
         d="m 742.3,545.5 18.5,-2.8 2.3,33.5 c 1.4,7.8 -1.02707,11.3 -6.34999,11.5 l -15.95001,0.1 1.5,-42.3 z"
         inkscape:connector-curvature="0" />
      <path
         id="path4786"
         style="opacity:1;fill:#000000;fill-rule:nonzero;stroke:none;stroke-width:0.5"
         d="m 662.8,535 c 5.7,25.4 19.98716,39.6 42.34286,37.3 4.65714,6.1 6.82755,13.1 6.78572,21.1 -0.82858,4 3.89705,9.7 -11.07143,9.3 L 676.5,596.6 C 664,595.5 656.63542,588.1 647.64286,582.7 L 662.8,535 Z"
         inkscape:connector-curvature="0" />
      <path
         id="path4788"
         style="opacity:1;fill:#000000;fill-rule:nonzero;stroke:none;stroke-width:0.5"
         d="m 640.1,585.3 -1.8,-10.8 c -1,-6.2 -3.44272,-3.1 -6.37142,0.3 -20.32858,24.1 -40.841,47.9 -62.5,71.1 L 567.2,653.7 c -2.9,2.7 -3.22038,-2.7 -5.62857,-5.7 L 631.5,563.7 c 3.6,-3.9 8.92167,-7.8 11.14286,0 l 1.55714,18.2 -4.1,3.4 z"
         inkscape:connector-curvature="0" />
      <path
         id="path4790"
         style="opacity:1;fill:#000000;fill-rule:nonzero;stroke:none;stroke-width:0.5"
         d="m 665.5,492.7 1,-24 -7.1,-3.5 C 621.3,513.8 585.1561,580 550.85715,637.7 l 6.04285,1 81.4,-125.3 c 7.6,-11.2 14.9673,-23.4 27.20001,-20.7 z"
         inkscape:connector-curvature="0" />
      <path
         id="path4792"
         style="opacity:1;fill:none;fill-rule:nonzero;stroke:#000000;stroke-width:3.79999995"
         d="m 846.9,523 -1.1,26.50504"
         inkscape:connector-curvature="0" />
      <path
         sodipodi:nodetypes="ccccccccc"
         inkscape:connector-curvature="0"
         id="path4794"
         style="opacity:1;fill:none;fill-rule:nonzero;stroke:#000000;stroke-width:3"
         d="M 792.8804,194.88315 797.6,479.8 C 778.7,468.2 757.25246,463.1 729.78572,473.4 712.1,484.6 691.92669,480.8 670.50001,470.2 651.5,462.5 640.63584,452.3 642.64286,438 c 4.45714,-6.6 10,-11.4 16.42857,-14.3 L 658.3,430.9 c -16.3,11.3 -9.70047,21.3 17.20001,34.3 19.39999,9.4 36.92848,8.5 54.99999,1.44789" />
      <path
         id="path4796"
         style="opacity:1;fill:none;fill-rule:nonzero;stroke:#000000;stroke-width:3"
         d="m 645.5,127.7 c -18.3,59.5 50.61977,71.1 84.28572,62.8 L 730.8,472.71932"
         inkscape:connector-curvature="0" />
      <path
         id="path4798"
         style="opacity:1;fill:none;fill-rule:nonzero;stroke:#000000;stroke-width:3"
         d="m 688.7,190.9 0,67.1 c 0.1,7.8 25.68539,15.5 41.08572,10.79075"
         inkscape:connector-curvature="0" />
      <path
         id="path4800"
         style="opacity:1;fill:none;fill-rule:nonzero;stroke:#000000;stroke-width:3"
         d="m 683.7,384.1 c 12.9,8.4 28.69919,9.2 46.44286,4.33361"
         inkscape:connector-curvature="0" />
      <path
         id="path4802"
         style="opacity:1;fill:none;fill-rule:nonzero;stroke:#000000;stroke-width:3"
         d="m 669.4,365.9 c 12.1,14.7 29.68274,23.3 60.74286,17.17647"
         inkscape:connector-curvature="0" />
      <path
         id="path4804"
         style="opacity:1;fill:none;fill-rule:nonzero;stroke:#000000;stroke-width:3"
         d="m 730.8,440.9 c -24.9,5.3 -48.73925,6.4 -67.08571,-14.7 L 663.7,402.00504"
         inkscape:connector-curvature="0" />
      <path
         id="path4806"
         style="opacity:1;fill:none;fill-rule:nonzero;stroke:#000000;stroke-width:3"
         d="m 675.8,422.3 0,13.27647"
         inkscape:connector-curvature="0" />
      <path
         id="path4808"
         style="opacity:1;fill:none;fill-rule:nonzero;stroke:#000000;stroke-width:3"
         d="m 707.6,429.8 0,13.99075"
         inkscape:connector-curvature="0" />
      <path
         id="path4810"
         style="opacity:1;fill:none;fill-rule:nonzero;stroke:#000000;stroke-width:3"
         d="m 718.3,444.5 11.8,7.50504"
         inkscape:connector-curvature="0" />
      <path
         id="path4812"
         style="opacity:1;fill:none;fill-rule:nonzero;stroke:#000000;stroke-width:3"
         d="m 691.9,444.1 38.6,19.33361"
         inkscape:connector-curvature="0" />
      <path
         id="path4814"
         style="opacity:1;fill:none;fill-rule:nonzero;stroke:#000000;stroke-width:3"
         d="m 668.6,281.5 c 14.1,17.3 35.28286,21.5 61.44445,16.66819"
         inkscape:connector-curvature="0" />
      <path
         id="path4816"
         style="opacity:1;fill:none;fill-rule:nonzero;stroke:#000000;stroke-width:3"
         d="m 676.2,288.5 21.5,-21.64654"
         inkscape:connector-curvature="0" />
      <path
         id="path4818"
         style="opacity:1;fill:none;fill-rule:nonzero;stroke:#000000;stroke-width:3"
         d="m 708.3,269.8 -7.9,29.1258"
         inkscape:connector-curvature="0" />
      <path
         id="path4820"
         style="opacity:1;fill:none;fill-rule:nonzero;stroke:#000000;stroke-width:3"
         d="m 724.9,298.6 -4.8,-27.95847"
         inkscape:connector-curvature="0" />
      <path
         id="path4822"
         style="opacity:1;fill:none;fill-rule:nonzero;stroke:#000000;stroke-width:3"
         d="m 635.9,442.7 7,-4.87822"
         inkscape:connector-curvature="0" />
      <path
         id="path4824"
         style="opacity:1;fill:none;fill-rule:nonzero;stroke:#000000;stroke-width:3"
         d="m 664.8,475.1 c 2.1,20.8 1.5068,51.2 -1.17308,72.07079"
         inkscape:connector-curvature="0" />
      <path
         id="path4826"
         style="opacity:1;fill:none;fill-rule:nonzero;stroke:#000000;stroke-width:3"
         d="m 685.8,476.4 c -15.8,4 -14.01985,24.5 -19.64769,38.19337"
         inkscape:connector-curvature="0" />
      <path
         id="path4828"
         style="opacity:1;fill:none;fill-rule:nonzero;stroke:#000000;stroke-width:4"
         d="m 554.5,635.5 c -5.9,8.4 -5.90028,21.8 -3.75762,36.9 2.25762,10.1 6.48181,3.5 10.10152,0 L 652.7,574.69745"
         inkscape:connector-curvature="0" />
      <path
         id="path4830"
         style="opacity:1;fill:none;fill-rule:nonzero;stroke:#000000;stroke-width:5"
         d="m 603.2,606 10.1,10.36624"
         inkscape:connector-curvature="0" />
      <path
         id="path4832"
         style="opacity:1;fill:none;fill-rule:nonzero;stroke:#000000;stroke-width:3"
         d="m 908.5,553.2 -1.7,24 C 870.5,561.4 833.74142,544.5 798.73483,531.2 785.6,512.8 785.6115,492.4 779.03685,471.66189"
         inkscape:connector-curvature="0" />
      <path
         id="path4834"
         style="opacity:1;fill:none;fill-rule:nonzero;stroke:#000000;stroke-width:3"
         d="m 722.4,477.2 c 27.7,14 16.92057,44.8 21.02898,69.2 L 798.2,532.0185"
         inkscape:connector-curvature="0" />
      <path
         id="path4836"
         style="opacity:1;fill:none;fill-rule:nonzero;stroke:#000000;stroke-width:4"
         d="m 797.9,533.2 -15.1,34.6 -23.5,-13.05307"
         inkscape:connector-curvature="0" />
      <path
         id="path4838"
         style="opacity:1;fill:none;fill-rule:nonzero;stroke:#000000;stroke-width:2"
         d="M 789.1,535.3 784,563.0807"
         inkscape:connector-curvature="0" />
      <path
         id="path4840"
         style="opacity:1;fill:none;fill-rule:nonzero;stroke:#000000;stroke-width:4"
         d="m 743.1,544.6 -3,41.7 c 0.3,3.9 0.0224,7.3 -5.00478,6.5 L 712.8,582.7 l 0.5,-10.6 c -4.5,0.3 -8.69663,0.7 -10.52966,2.34491"
         inkscape:connector-curvature="0" />
      <path
         id="path4842"
         style="opacity:1;fill:none;fill-rule:nonzero;stroke:#000000;stroke-width:2"
         d="m 713.8,571.4 c 6.4,-1.3 7.65707,4.9 6.64801,14.40913"
         inkscape:connector-curvature="0" />
      <path
         id="path4844"
         style="opacity:1;fill:none;fill-rule:nonzero;stroke:#000000;stroke-width:2"
         d="m 655.2,433.7 0.3,19.27406"
         inkscape:connector-curvature="0" />
      <path
         id="path4846"
         style="opacity:1;fill:none;fill-rule:nonzero;stroke:#000000;stroke-width:5"
         d="m 658.4,429.2 7.7,-0.21706"
         inkscape:connector-curvature="0" />
      <path
         id="path4848"
         style="opacity:1;fill:#ffffff;fill-rule:nonzero;stroke:none;stroke-width:1"
         d="m 713.6,16 c -5.3,2.4 -13.86171,6.8 -4.76871,12.4 9.36871,8.4 22.147,5.2 25.5063,2.5 C 741.7,25.2 730.04829,11.7 713.62949,16 Z"
         inkscape:connector-curvature="0" />
      <path
         inkscape:connector-curvature="0"
         d="m 659.23723,271.70645 c -26.64205,41.78918 -69.7382,59.93136 -104.814,84.90966 -9.82378,7.02359 -22.65207,16.42899 -32.18907,38.66524 l -1.99416,5.08582 7.44414,2.85984 61.21242,1.67422 20.70612,1.26078 5.5394,-6.83311 -86.19355,-3.34923 c 10.40229,-19.98139 34.01497,-33.91518 48.42389,-42.49329 l 65.5818,-42.80443 16.28302,-38.97548 z"
         style="opacity:1;fill:#000000;fill-rule:nonzero;stroke:none;stroke-width:0.5"
         id="path5394" />
      <path
         inkscape:connector-curvature="0"
         d="m 521.92457,399.52011 -6.07615,16.76436 c 25.01293,3.44284 50.60561,6.32497 74.15984,10.94515 12.76617,-7.26583 18.73588,-20.9608 28.5031,-32.33416"
         style="opacity:1;fill:none;fill-rule:nonzero;stroke:#000000;stroke-width:2.10046482"
         id="path5396" />
      <path
         sodipodi:nodetypes="cccsccccccccccccc"
         inkscape:connector-curvature="0"
         id="path5400"
         d="m 615.67566,124.17901 -11.23094,299.78004 0.86391,0.86392 c 0,0 26.64677,-5.56139 39.08772,8.15903 1.71817,1.89488 1.42104,0.38375 1.42104,0.38375 l 7.87073,-9.4067 2.59176,-31.96502 -1.72784,-76.02491 1.72784,-139.09103 -9.50312,-10.36703 -4.31959,-10.36703 0,-20.73407 1.72784,-8.63919 c -4.75462,-8.13065 -19.93142,-9.80947 -29.15269,-6.52536 l -0.60658,1.61756 -1.34183,1.45212 z"
         style="fill:#ffffff;fill-opacity:1;fill-rule:evenodd;stroke:#000000;stroke-width:3;stroke-linecap:butt;stroke-linejoin:miter;stroke-miterlimit:4;stroke-dasharray:none;stroke-opacity:1" />
      <path
         sodipodi:nodetypes="cc"
         inkscape:connector-curvature="0"
         id="path5402"
         d="m 613.89269,123.27832 c 15.05425,-9.92588 24.15298,-4.46664 30.27394,4.46665"
         style="fill:none;fill-rule:evenodd;stroke:#000000;stroke-width:5;stroke-linecap:round;stroke-linejoin:round;stroke-miterlimit:4;stroke-dasharray:none;stroke-opacity:1" />
      <path
         sodipodi:nodetypes="ccccc"
         inkscape:connector-curvature="0"
         id="path5404"
         d="m 699.04845,27.421182 -18.01132,24.463151 -20.42042,34.456258 -17.58741,42.536569 0.4963,8.88149"
         style="fill:none;fill-rule:evenodd;stroke:#000000;stroke-width:2;stroke-linecap:round;stroke-linejoin:round;stroke-miterlimit:4;stroke-dasharray:none;stroke-opacity:1" />
      <path
         inkscape:connector-curvature="0"
         d="M 550.82872,403.60689 549.6957,419.8942"
         style="opacity:1;fill:none;fill-rule:nonzero;stroke:#000000;stroke-width:3.02318621"
         id="path5406" />
    </g>
  </g>
</svg>
